<?xml version="1.0" encoding="utf-8"?>
<!DOCTYPE svg PUBLIC "-//W3C//DTD SVG 20010904//EN" "http://www.w3.org/TR/2001/REC-SVG-20010904/DTD/svg10.dtd">
<svg version="1.0" xmlns="http://www.w3.org/2000/svg" width="1000px" height="1000px" viewBox="0 0 1000 1000" preserveAspectRatio="xMidYMid meet">
 <g fill="none" stroke="#000000" stroke-width="1">
  <path d="M0 500 l0 -500 500 0 500 0 0 500 0 500 -500 0 -500 0 0 -500z m635.7 367.5 c34.6 -6.6 63.8 -28.4 78.8 -59 16.3 -33.2 15 -62.3 -4.8 -103.7 -9.4 -19.7 -36.8 -67.5 -47.2 -82.3 -2.3 -3.3 -10.3 -15.9 -17.8 -28.1 -10.7 -17.3 -13.7 -22.8 -13.7 -25.5 l0.1 -3.4 36.6 -21 c24.2 -13.9 38.2 -22.5 41.1 -25.3 9 -8.9 12.4 -22.4 8.3 -33.4 -2.7 -6.9 -7.6 -13.5 -12.7 -17 -4.8 -3.1 -341.8 -197.9 -351.1 -202.8 -5.8 -3.1 -7.5 -3.5 -13.7 -3.5 -13 0.1 -24.7 8.1 -30.9 21.3 l-3.2 6.7 0 205 0 205 2.4 6 c3.4 8.3 12.4 17.4 20.6 20.5 7.5 2.8 15.6 2.9 21.7 0.2 2.4 -1 24 -13.2 47.9 -27.1 29.9 -17.2 44.5 -25.1 46.5 -25.1 2.8 0 3.7 1.4 18.3 27.3 63.4 112 68.3 120.2 79.1 131.9 14.8 16.2 36.4 28.3 59.1 33.3 8.6 1.8 24.9 1.8 34.6 0z m-284.9 -656.7 c7.5 -2.8 16.1 -11.1 19.8 -19 5.7 -12.6 3 -25.3 -7.8 -36.1 -14.3 -14.3 -33.4 -13.7 -47.5 1.6 -8.3 8.9 -11.3 18.7 -8.8 28.1 3.5 13.3 13.6 23.5 26.5 27 6.1 1.6 9.9 1.3 17.8 -1.6z"/>
  <path d="M607.2 798.1 c-7.3 -2.5 -15.8 -8.6 -20.8 -14.9 -3.8 -4.9 -12.9 -20.6 -42.5 -72.7 -5.3 -9.3 -16 -28.1 -23.8 -41.7 -11.6 -20.2 -14.2 -25.4 -13.9 -28 0.3 -3.1 1.4 -3.9 29.3 -20 24.4 -14.1 29.6 -16.8 33 -16.7 l4 0 16.7 27.2 c22.5 36.6 62 106.2 64.4 113.4 1.5 4.5 1.9 8.7 1.9 18.8 0 12.2 -0.2 13.4 -2.8 18.7 -3.4 7 -11 14 -17.4 16.2 -6.5 2.2 -21.2 2.1 -28.1 -0.3z"/>
  <path d="M374 495.9 l0 -138 3.3 0.3 c2.2 0.2 42.3 22.8 119.5 67.3 l116.1 67 0 3.5 0.1 3.5 -64.2 37 c-35.4 20.4 -73.7 42.4 -85.3 49.1 -11.5 6.7 -35.1 20.3 -52.3 30.2 -21.1 12.2 -32.3 18.2 -34.3 18.2 l-2.9 0 0 -138.1z"/>
 </g>
 <g fill="#2d5058">
  <path d="M602.5 871.3 c-11.4 -2.4 -15.5 -3.7 -15.5 -4.9 0 -1.8 1.7 -1.8 12.7 0.3 7.5 1.5 9.3 2.1 9.3 3.6 0 1.7 -1.9 2 -6.5 1z"/>
  <path d="M628 870.1 c0 -1.5 1 -1.9 5.7 -2.5 3.2 -0.4 10.4 -2.2 16.1 -4.1 5.7 -1.9 11.5 -3.5 12.8 -3.5 1.5 0 2.4 -0.6 2.4 -1.5 0 -1 1.1 -1.5 3.5 -1.5 2.8 0 3.5 -0.4 3.5 -2 0 -1.5 0.7 -2 2.5 -2 1.6 0 2.5 -0.6 2.5 -1.5 0 -0.8 0.7 -1.5 1.5 -1.5 0.8 0 1.5 -0.4 1.5 -1 0 -0.5 0.9 -1 2 -1 1.1 0 2 -0.7 2 -1.5 0 -1 1 -1.5 3 -1.5 2.5 0 3 -0.4 3 -2.3 0 -2.9 1.8 -4.7 4.7 -4.7 1.7 0 2.3 -0.6 2.3 -2.3 0 -2.8 1.7 -4.7 4.2 -4.7 1.3 0 1.8 -0.8 1.8 -2.5 0 -1.6 0.6 -2.5 1.5 -2.5 0.8 0 1.5 -0.9 1.5 -2 0 -1.1 0.5 -2 1 -2 0.6 0 1 -0.7 1 -1.5 0 -0.8 0.4 -1.5 0.9 -1.5 0.5 0 1.2 -1.1 1.5 -2.5 0.5 -1.8 1.3 -2.5 3.1 -2.5 1.4 0 2.5 0.4 2.5 0.9 0 2.4 -11.3 17.5 -18.5 24.6 -15.9 15.8 -36.7 26.8 -58.8 31 -10.1 1.9 -10.7 1.9 -10.7 -0.4z"/>
  <path d="M580.1 865.1 c-6.4 -2.3 -6.8 -4.5 -0.7 -3.9 5.4 0.6 5.9 0.9 5.4 3.6 -0.3 1.9 -0.4 1.9 -4.7 0.3z"/>
  <path d="M558.8 854 c-4 -2.7 -9.3 -6.7 -11.8 -9 l-4.5 -4 4 0.2 c3.3 0.3 4.1 0.7 4.3 2.6 0.3 1.6 1 2.2 2.8 2.2 1.5 0 2.4 0.6 2.4 1.5 0 0.8 0.9 1.5 2 1.5 1.1 0 2 0.5 2 1 0 0.6 0.7 1 1.5 1 0.8 0 1.5 0.4 1.5 0.9 0 0.5 1.1 1.2 2.5 1.5 1.8 0.5 2.5 1.3 2.5 3.1 0 1.4 -0.4 2.5 -0.9 2.5 -0.5 0 -4.2 -2.2 -8.3 -5z"/>
  <path d="M534.9 832.5 c-3.1 -3.8 -6.9 -9 -8.6 -11.5 -3.4 -5 -50.3 -86.6 -50.3 -87.5 0 -0.3 1.1 -0.5 2.5 -0.5 2 0 2.5 0.5 2.5 2.5 0 1.5 0.6 2.5 1.4 2.5 1.5 0 2.6 2.1 2.6 5.1 0 1 0.6 1.9 1.4 1.9 1.5 0 2.6 2.1 2.6 5.1 0 1 0.6 1.9 1.4 1.9 1.5 0 2.6 2.1 2.6 5.1 0 1 0.6 1.9 1.4 1.9 1.5 0 2.6 2.1 2.6 5.1 0 1 0.6 1.9 1.4 1.9 1.7 0 2.6 2.2 2.6 6.1 0 2.2 0.5 2.9 2 2.9 1.6 0 2 0.7 2 3.5 0 2.8 0.4 3.5 2 3.5 1.5 0 2 0.7 2 2.5 0 1.6 0.6 2.5 1.5 2.5 0.9 0 1.5 0.9 1.5 2.5 0 1.5 0.6 2.5 1.4 2.5 1.7 0 2.6 2.2 2.6 6.1 0 2.2 0.5 2.9 1.9 2.9 2 0 3.1 1.8 3.1 5.1 0 1 0.7 1.9 1.5 1.9 0.9 0 1.5 0.9 1.5 2.5 0 1.6 0.6 2.5 1.5 2.5 0.8 0 1.5 0.7 1.5 1.5 0 0.8 0.5 1.5 1 1.5 0.6 0 1 0.7 1 1.5 0 0.8 0.5 1.5 1 1.5 0.6 0 1 0.7 1 1.5 0 0.8 0.5 1.5 1 1.5 0.6 0 1 0.9 1 2 0 1.1 0.7 2 1.5 2 0.9 0 1.5 0.9 1.5 2.5 0 1.8 0.5 2.5 2 2.5 2.4 0 3.3 1.7 2.8 5.7 -0.3 2.7 -0.5 2.5 -5.9 -4.2z"/>
  <path d="M717 805.5 c0 -1.9 0.4 -3.5 0.9 -3.5 0.5 0 1.1 -1.8 1.5 -4 0.3 -2.2 1 -4 1.5 -4 0.5 0 1.1 -1.7 1.4 -3.7 2.3 -17.7 3.2 -21.3 5 -21.3 1.6 0 1.7 0.6 1.1 6.3 -1.9 17.5 -11.4 42.7 -11.4 30.2z"/>
  <path d="M609.3 799.3 c-1.6 -0.3 -2.3 -1.1 -2.3 -2.7 l0 -2.3 5.5 1.5 c8.9 2.5 6.2 5.3 -3.2 3.5z"/>
  <path d="M626 798.7 c0 -0.7 2.4 -2.1 5.4 -3 10 -3.2 19 -13.9 21 -24.9 0.9 -5 3.6 -5.2 3.6 -0.3 0 1.9 -0.4 3.5 -1 3.5 -0.5 0 -1 1.6 -1 3.5 0 2.4 -0.5 3.5 -1.5 3.5 -1 0 -1.5 1 -1.5 3 0 1.7 -0.4 3 -1 3 -0.5 0 -1 0.6 -1 1.3 0 1.6 -4.2 5.7 -5.8 5.7 -0.7 0 -1.2 0.5 -1.2 1 0 0.6 -1.3 1 -3 1 -1.9 0 -3 0.5 -3 1.4 0 1.5 -3 2.6 -7.2 2.6 -1.7 0 -2.8 -0.5 -2.8 -1.3z"/>
  <path d="M597 792.5 c0 -0.8 -0.9 -1.5 -2 -1.5 -1.6 0 -2 -0.7 -2 -3 l0 -3.1 5.5 3.8 c3 2.1 5.4 4.1 5.5 4.6 0 0.4 -1.6 0.7 -3.5 0.7 -2.4 0 -3.5 -0.5 -3.5 -1.5z"/>
  <path d="M586 782 c0 -1.1 -0.7 -2 -1.5 -2 -0.8 0 -1.5 -0.7 -1.5 -1.5 0 -0.8 -0.4 -1.5 -1 -1.5 -0.5 0 -1 -1.1 -1 -2.5 0 -1.5 -0.6 -2.5 -1.4 -2.5 -1.5 0 -2.6 -2.1 -2.6 -5.1 0 -1 -0.7 -1.9 -1.5 -1.9 -1 0 -1.5 -1.1 -1.5 -3.5 0 -2.8 -0.4 -3.5 -2 -3.5 -1.6 0 -2 -0.7 -2 -3.5 0 -2.8 -0.4 -3.5 -1.9 -3.5 -2 0 -3.1 -1.8 -3.1 -5.1 0 -1 -0.6 -1.9 -1.4 -1.9 -1.5 0 -2.6 -2.1 -2.6 -5.1 0 -1 -0.6 -1.9 -1.4 -1.9 -1.7 0 -2.6 -2.2 -2.6 -6.1 0 -2.2 -0.5 -2.9 -2 -2.9 -1.6 0 -2 -0.7 -2 -3.5 0 -2.8 -0.4 -3.5 -2 -3.5 -1.6 0 -2 -0.7 -2 -3.5 0 -2.8 -0.4 -3.5 -2 -3.5 -1.5 0 -2 -0.7 -2 -2.5 0 -1.4 -0.6 -2.5 -1.3 -2.5 -1.8 0 -3.7 -4.3 -3.7 -8 0 -4.1 1.2 -3.7 4 1.3 14.6 26.2 40.2 70.5 43.7 75.5 l4.4 6.2 -3 0 c-2.4 0 -3.1 -0.4 -3.1 -2z"/>
  <path d="M652 753.4 c-0.7 -3.1 -1.8 -7.1 -2.6 -9 -1.4 -3.3 -1.4 -3.4 1.1 -3.4 2.1 0 2.5 0.5 2.5 2.9 0 1.6 0.5 3.1 1 3.3 0.6 0.2 1.4 2.9 1.7 6.1 0.5 4.8 0.3 5.7 -1 5.7 -1.1 0 -1.9 -1.7 -2.7 -5.6z"/>
  <path d="M724.6 750.8 c-0.3 -3.5 -1.3 -8.8 -2.1 -11.8 -1.9 -7.1 -1.9 -11 -0.1 -11 1.5 0 4.9 12.7 6.1 23.3 0.7 5.2 0.6 5.7 -1.2 5.7 -1.7 0 -2.1 -0.9 -2.7 -6.2z"/>
  <path d="M625.6 701.2 c-22.5 -39.5 -55.5 -94.1 -57 -94.2 -1.1 0 -56.5 31.7 -58.3 33.4 -0.9 0.8 1.6 6.1 10.8 22.1 6.6 11.6 13.5 23.5 15.4 26.7 1.9 3.1 3.5 5.9 3.5 6.2 0 0.3 -1.1 0.6 -2.5 0.6 -1.4 0 -2.5 -0.4 -2.5 -1 0 -1.8 -8.6 -9 -14 -11.8 -7.7 -3.8 -18 -3.9 -26.2 0 -7.4 3.5 -14.2 10.4 -17.8 18.1 -3.2 6.8 -3.7 11 -2.5 20.6 0.6 5.1 0.5 6.3 -0.5 5.9 -1 -0.3 -19.1 -30.7 -28.3 -47.5 -1.2 -2.2 -2.2 -1.6 -43.7 22.4 -23.4 13.5 -43.1 24.8 -43.7 25 -0.9 0.3 -1.3 -0.4 -1.3 -2.1 0 -1.6 0.6 -2.6 1.4 -2.6 0.8 0 1.6 -0.4 1.8 -0.8 0.4 -1.2 16.2 -10.2 17.6 -10.2 0.7 0 1.2 -0.4 1.2 -0.9 0 -0.5 1.5 -1.4 3.3 -2.2 1.7 -0.7 3.4 -1.6 3.7 -1.9 0.8 -1.2 16.6 -10 17.8 -10 0.6 0 1.2 -0.4 1.4 -0.8 0.4 -1.2 16.2 -10.2 17.6 -10.2 0.7 0 1.2 -0.4 1.2 -0.9 0 -0.5 1.5 -1.4 3.3 -2.2 1.7 -0.7 3.4 -1.6 3.7 -2.1 0.3 -0.4 3.9 -2.5 8 -4.6 9.7 -4.9 61.1 -34.6 67 -38.6 2.5 -1.7 6.8 -4.2 9.5 -5.6 2.7 -1.4 5.5 -3 6.2 -3.7 0.7 -0.6 2.3 -1.5 3.6 -1.9 1.2 -0.4 2.4 -1 2.7 -1.4 0.8 -1.1 16.6 -10 17.8 -10 0.7 0 1.2 -0.4 1.2 -0.9 0 -0.5 1.5 -1.4 3.3 -2.2 1.7 -0.7 3.4 -1.6 3.7 -2 0.3 -0.3 3 -2 6.1 -3.8 6.6 -3.7 11.9 -4.2 11.9 -1.1 0 1.1 0.7 2 1.5 2 0.8 0 1.5 0.7 1.5 1.5 0 0.8 0.5 1.5 1 1.5 0.6 0 1 1.1 1 2.5 0 1.6 0.6 2.5 1.5 2.5 0.9 0 1.5 0.9 1.5 2.5 0 1.6 0.6 2.5 1.5 2.5 0.8 0 1.5 0.7 1.5 1.5 0 0.8 0.5 1.5 1 1.5 0.6 0 1 1.1 1 2.5 0 1.6 0.6 2.5 1.5 2.5 0.8 0 1.5 0.7 1.5 1.5 0 0.8 0.5 1.5 1 1.5 0.6 0 1 1.1 1 2.5 0 1.6 0.6 2.5 1.5 2.5 0.9 0 1.5 0.9 1.5 2.5 0 1.6 0.6 2.5 1.5 2.5 0.8 0 1.5 0.7 1.5 1.5 0 0.8 0.5 1.5 1 1.5 0.6 0 1 1.1 1 2.5 0 1.6 0.6 2.5 1.5 2.5 0.8 0 1.5 0.7 1.5 1.5 0 0.8 0.5 1.5 1 1.5 0.6 0 1 1.1 1 2.5 0 1.6 0.6 2.5 1.5 2.5 1 0 1.5 1.1 1.5 3.5 0 2.8 0.4 3.5 1.9 3.5 2 0 3.1 1.8 3.1 5.1 0 1 0.6 1.9 1.4 1.9 1.5 0 2.6 2.1 2.6 5.1 0 1 0.6 1.9 1.4 1.9 1.5 0 2.6 2.1 2.6 5.1 0 1 0.6 1.9 1.4 1.9 1.5 0 2.6 2.1 2.6 5.1 0 1 0.6 1.9 1.4 1.9 1.5 0 2.6 2.1 2.6 5.1 0 1 0.6 1.9 1.4 1.9 1.5 0 2.6 2.1 2.6 5.1 0 1 0.6 1.9 1.4 1.9 1.5 0 2.6 2.1 2.6 5.1 0 1 0.6 1.9 1.4 1.9 1.7 0 2.6 2.2 2.6 6.1 0 2.2 0.5 2.9 2 2.9 1.6 0 2 0.7 2 3.5 0 2.8 0.4 3.5 1.9 3.5 1 0 2.2 0.7 2.5 1.6 0.8 2.2 0.7 7.4 -0.1 7.4 -0.5 0 -10.2 -16.5 -21.7 -36.8z"/>
  <path d="M330 731.5 c-5.8 -1.7 -12.8 -5.4 -15 -7.9 -1.1 -1.4 -0.8 -1.6 2.4 -1.6 2 0 3.6 0.4 3.6 0.9 0 0.5 1.1 1.2 2.4 1.5 1.4 0.3 3.2 1.3 4.1 2.2 1.9 1.9 15.2 2.4 23.8 1 3.4 -0.6 4.7 -0.5 4.7 0.3 0 3.7 -17 6.1 -26 3.6z"/>
  <path d="M717.4 722.3 c-0.4 -2.1 -1.3 -4.4 -2.1 -5.1 -0.7 -0.7 -1.3 -2.9 -1.3 -4.8 0 -2.2 -0.5 -3.4 -1.3 -3.4 -0.8 0 -1.9 -1.1 -2.5 -2.5 -1.5 -3.2 -1.6 -8.5 -0.1 -8.5 1.1 0 6.5 11.1 10.5 21.8 l2.4 6.2 -2.5 0 c-2 0 -2.5 -0.6 -3.1 -3.7z"/>
  <path d="M309.8 717.9 c-1.5 -1.9 -3.4 -5.2 -4.3 -7.2 -1.5 -3.7 -1.5 -3.7 0.9 -3.7 1.7 0 2.7 0.9 3.7 3.3 0.7 1.7 1.7 3.5 2.2 3.8 0.5 0.3 0.7 2.1 0.5 4 l-0.3 3.4 -2.7 -3.6z"/>
  <path d="M302.6 700.8 c-1.1 -4.2 -0.7 -5.8 1.4 -5.8 1.7 0 2 0.7 2 4 0 4.5 -2.3 5.7 -3.4 1.8z"/>
  <path d="M701.7 689.5 c-0.9 -2 -1.7 -4.9 -1.7 -6.5 0 -2.3 -0.5 -3 -1.9 -3 -2.1 0 -3.1 -1.9 -3.1 -6.1 0 -2.2 -0.5 -2.9 -2 -2.9 -1.5 0 -2 -0.7 -2 -2.5 0 -1.5 -0.6 -2.5 -1.4 -2.5 -1.5 0 -2.6 -2.1 -2.6 -5.1 0 -1 -0.7 -1.9 -1.5 -1.9 -0.9 0 -1.5 -0.9 -1.5 -2.5 0 -1.6 -0.6 -2.5 -1.5 -2.5 -0.9 0 -1.5 -0.9 -1.5 -2.5 0 -1.6 -0.6 -2.5 -1.5 -2.5 -0.9 0 -1.5 -0.9 -1.5 -2.5 0 -1.6 -0.6 -2.5 -1.5 -2.5 -0.9 0 -1.5 -0.9 -1.5 -2.5 0 -1.6 -0.6 -2.5 -1.5 -2.5 -0.9 0 -1.5 -0.9 -1.5 -2.5 0 -1.5 -0.6 -2.5 -1.5 -2.5 -0.8 0 -1.7 -1.1 -2.1 -2.5 -0.3 -1.4 -1 -2.5 -1.5 -2.5 -0.5 0 -0.9 -0.6 -0.9 -1.4 0 -0.8 -0.7 -1.6 -1.5 -2 -0.8 -0.3 -1.5 -1.2 -1.5 -2.1 0 -0.8 -0.4 -1.5 -1 -1.5 -0.5 0 -1 -0.7 -1 -1.5 0 -0.8 -0.4 -1.5 -1 -1.5 -0.5 0 -1 -1.1 -1 -2.5 0 -1.6 -0.6 -2.5 -1.5 -2.5 -0.8 0 -1.5 -0.7 -1.5 -1.5 0 -0.8 -0.4 -1.5 -1 -1.5 -0.5 0 -1 -1.1 -1 -2.5 0 -1.6 -0.6 -2.5 -1.5 -2.5 -0.8 0 -1.5 -0.7 -1.5 -1.5 0 -0.8 -0.4 -1.5 -1 -1.5 -0.5 0 -1 -1.1 -1 -2.5 0 -1.6 -0.6 -2.5 -1.5 -2.5 -0.9 0 -1.5 -0.9 -1.5 -2.5 0 -1.6 -0.6 -2.5 -1.5 -2.5 -0.8 0 -1.5 -0.7 -1.5 -1.5 0 -0.8 -0.4 -1.5 -1 -1.5 -0.5 0 -1 -1.1 -1 -2.5 0 -1.6 -0.6 -2.5 -1.5 -2.5 -0.8 0 -1.5 -0.7 -1.5 -1.5 0 -0.8 -0.4 -1.5 -1 -1.5 -0.5 0 -1 -1.1 -1 -2.5 0 -1.4 -0.6 -2.5 -1.4 -2.5 -0.8 0 -1.6 -1.7 -2 -4.6 -1 -7.6 -0.9 -7.8 5.1 -10.9 3.2 -1.7 6.3 -3.5 7 -4.2 0.7 -0.6 2.3 -1.5 3.6 -1.9 1.2 -0.4 2.4 -1 2.7 -1.4 0.8 -1.1 16.6 -10 17.8 -10 0.6 0 1.2 -0.4 1.4 -0.8 0.4 -1.2 16.2 -10.2 17.6 -10.2 0.7 0 1.2 -0.4 1.2 -0.8 0 -1.1 4.6 -3.2 7 -3.2 1.1 0 2 -0.6 2 -1.4 0 -1.6 2.1 -2.6 5.6 -2.6 1.7 0 2.4 -0.6 2.4 -1.8 0 -2 3.9 -6.2 5.8 -6.2 0.7 0 1.2 -0.9 1.2 -1.9 0 -1.1 0.7 -2.6 1.5 -3.5 0.8 -0.8 1.5 -2.1 1.5 -2.9 0 -0.9 0.6 -1.7 1.2 -1.9 1.8 -0.6 1.8 -21 0 -21.6 -0.6 -0.2 -1.2 -1.7 -1.2 -3.3 0 -1.9 -0.5 -2.9 -1.5 -2.9 -0.8 0 -1.5 -0.9 -1.5 -2 0 -1.1 -0.6 -2 -1.3 -2 -1.6 0 -5.7 -4.1 -5.7 -5.7 0 -0.6 -1.3 -1.3 -3 -1.6 -1.8 -0.4 -3 -1.3 -3 -2.2 0 -0.8 -0.9 -1.5 -2 -1.5 -2.3 0 -7 -2 -7 -3.1 0 -0.4 -1.1 -1 -2.5 -1.3 -1.4 -0.4 -2.5 -1.3 -2.5 -2.1 0 -0.8 -0.9 -1.5 -1.9 -1.5 -3 0 -5.1 -1.1 -5.1 -2.6 0 -0.8 -1 -1.4 -2.4 -1.4 -1.4 0 -3.1 -0.6 -3.8 -1.3 -0.7 -0.7 -2.8 -1.9 -4.5 -2.6 -1.8 -0.7 -3.3 -1.7 -3.3 -2.1 0 -0.4 -1.1 -1.1 -2.5 -1.4 -1.4 -0.4 -2.5 -1.3 -2.5 -2.1 0 -0.8 -0.9 -1.5 -1.9 -1.5 -3 0 -5.1 -1.1 -5.1 -2.6 0 -0.8 -1 -1.4 -2.4 -1.4 -1.4 0 -3.1 -0.6 -3.8 -1.3 -0.7 -0.7 -2.8 -1.9 -4.5 -2.6 -1.8 -0.7 -3.3 -1.7 -3.3 -2.1 0 -0.4 -1.1 -1.1 -2.5 -1.4 -1.4 -0.4 -2.5 -1.3 -2.5 -2.1 0 -0.9 -1 -1.5 -2.4 -1.5 -1.4 0 -3.1 -0.6 -3.8 -1.3 -0.7 -0.7 -2.8 -1.9 -4.5 -2.6 -1.8 -0.7 -3.3 -1.6 -3.3 -2 0 -0.4 -1.6 -1.3 -3.5 -2 -1.9 -0.7 -3.5 -1.6 -3.5 -2.1 0 -0.4 -1.1 -1.1 -2.5 -1.4 -1.4 -0.4 -2.5 -1.3 -2.5 -2.1 0 -0.9 -1 -1.5 -2.4 -1.5 -1.4 0 -3.1 -0.6 -3.8 -1.3 -0.7 -0.7 -2.8 -1.9 -4.5 -2.6 -1.8 -0.7 -3.3 -1.7 -3.3 -2.1 0 -0.4 -1.1 -1.1 -2.5 -1.4 -1.4 -0.4 -2.5 -1.3 -2.5 -2.1 0 -0.8 -0.9 -1.5 -1.9 -1.5 -3 0 -5.1 -1.1 -5.1 -2.6 0 -0.8 -1 -1.4 -2.4 -1.4 -1.4 0 -3.1 -0.6 -3.8 -1.3 -0.7 -0.7 -2.8 -1.9 -4.5 -2.6 -1.8 -0.7 -3.3 -1.7 -3.3 -2.1 0 -0.4 -1.1 -1.1 -2.5 -1.4 -1.4 -0.4 -2.5 -1.3 -2.5 -2.1 0 -0.8 -0.9 -1.5 -1.9 -1.5 -3 0 -5.1 -1.1 -5.1 -2.6 0 -0.8 -1 -1.4 -2.4 -1.4 -1.4 0 -3.1 -0.6 -3.8 -1.3 -0.7 -0.7 -2.8 -1.9 -4.5 -2.6 -1.8 -0.7 -3.3 -1.7 -3.3 -2.1 0 -0.4 -1.1 -1.1 -2.5 -1.4 -1.4 -0.4 -2.5 -1.3 -2.5 -2.1 0 -0.9 -1 -1.5 -2.4 -1.5 -1.4 0 -3.1 -0.6 -3.8 -1.3 -0.7 -0.7 -2.8 -1.9 -4.5 -2.6 -1.8 -0.7 -3.3 -1.7 -3.3 -2.1 0 -0.4 -1.1 -1.1 -2.5 -1.4 -1.4 -0.4 -2.5 -1.3 -2.5 -2.1 0 -0.8 -0.9 -1.5 -1.9 -1.5 -3 0 -5.1 -1.1 -5.1 -2.6 0 -0.8 -1 -1.4 -2.4 -1.4 -1.4 0 -3.1 -0.6 -3.8 -1.3 -0.7 -0.7 -2.8 -1.9 -4.5 -2.6 -1.8 -0.7 -3.3 -1.7 -3.3 -2.1 0 -0.4 -1.1 -1.1 -2.5 -1.4 -1.4 -0.4 -2.5 -1.3 -2.5 -2.1 0 -0.8 -0.9 -1.5 -1.9 -1.5 -3 0 -5.1 -1.1 -5.1 -2.6 0 -0.8 -1 -1.4 -2.4 -1.4 -1.4 0 -3.1 -0.6 -3.8 -1.3 -0.7 -0.7 -2.8 -1.9 -4.6 -2.6 -1.7 -0.7 -3.2 -1.7 -3.2 -2.1 0 -0.4 -1.1 -1.1 -2.5 -1.4 -1.4 -0.4 -2.5 -1.3 -2.5 -2.1 0 -0.8 -0.9 -1.5 -1.9 -1.5 -3 0 -5.1 -1.1 -5.1 -2.6 0 -0.8 -1 -1.4 -2.4 -1.4 -1.4 0 -3.1 -0.6 -3.8 -1.3 -0.7 -0.7 -2.8 -1.9 -4.5 -2.6 -1.8 -0.7 -3.3 -1.7 -3.3 -2.1 0 -0.4 -1.1 -1.1 -2.5 -1.4 -1.4 -0.4 -2.5 -1.3 -2.5 -2.1 0 -0.9 -1 -1.5 -2.4 -1.5 -1.4 0 -3.1 -0.6 -3.8 -1.3 -0.7 -0.7 -2.8 -1.9 -4.5 -2.6 -1.8 -0.7 -3.3 -1.7 -3.3 -2.1 0 -0.4 -1.1 -1.1 -2.5 -1.4 -1.4 -0.4 -2.5 -1.3 -2.5 -2.1 0 -0.8 -0.9 -1.5 -1.9 -1.5 -3 0 -5.1 -1.1 -5.1 -2.6 0 -0.8 -1 -1.4 -2.4 -1.4 -1.4 0 -3.1 -0.6 -3.8 -1.3 -0.7 -0.7 -2.8 -1.9 -4.5 -2.6 -1.8 -0.7 -3.3 -1.7 -3.3 -2.1 0 -0.4 -1.1 -1.1 -2.5 -1.4 -1.4 -0.4 -2.5 -1.3 -2.5 -2.1 0 -0.8 -0.9 -1.5 -1.9 -1.5 -3 0 -5.1 -1.1 -5.1 -2.6 0 -0.8 -1 -1.4 -2.4 -1.4 -1.4 0 -3.1 -0.6 -3.8 -1.3 -0.7 -0.7 -2.8 -1.9 -4.5 -2.6 -1.8 -0.7 -3.3 -1.7 -3.3 -2.1 0 -0.4 -1.1 -1.1 -2.5 -1.4 -1.4 -0.4 -2.5 -1.3 -2.5 -2.1 0 -0.9 -1 -1.5 -2.4 -1.5 -1.4 0 -3.1 -0.7 -4 -1.5 -0.8 -0.8 -1.9 -1.5 -2.5 -1.5 -0.6 0 -1.1 -0.4 -1.1 -1 0 -0.5 -0.7 -1 -1.5 -1 -0.8 0 -1.5 -0.7 -1.5 -1.5 0 -0.8 -0.9 -1.5 -2 -1.5 -1.1 0 -4 -0.5 -6.5 -1.2 -3.3 -0.9 -4.5 -1.7 -4.5 -3.1 0 -1.7 0.5 -1.8 3.8 -1.3 2 0.4 6.2 1.9 9.2 3.5 3 1.5 80.4 46.1 172 99 91.5 52.9 169.4 97.9 173 99.9 12 6.7 18.7 15.8 21.1 28.6 1.9 10.7 -2.4 24 -10.3 31.8 -2.9 2.8 -16.9 11.5 -40.9 25.2 -20 11.5 -36.6 21.1 -36.8 21.2 -0.4 0.4 25.7 42.7 31.4 50.9 7.7 11 42.5 70.6 42.5 72.8 0 0.4 -1 0.7 -2.3 0.7 -1.7 0 -2.8 -1 -4 -3.5z"/>
  <path d="M376.1 629.3 c0.2 -2.9 0.3 -3.2 0.6 -1.1 0.5 2.9 -2.6 4.5 54.4 -28.6 8.6 -5 52.4 -30.2 97.3 -56.1 44.8 -25.8 81.5 -47.2 81.5 -47.5 0 -0.3 -52.3 -30.7 -116.2 -67.5 -113.3 -65.4 -116.2 -67 -116.8 -64.5 -0.6 2.1 -0.7 1.9 -0.8 -1.2 -0.1 -3.6 0.1 -3.8 2.8 -3.8 3.9 0 6.1 0.9 6.1 2.6 0 0.8 1 1.4 2.4 1.4 1.4 0 3.1 0.6 3.8 1.3 0.7 0.7 2.8 1.9 4.6 2.6 1.7 0.7 3.2 1.7 3.2 2.1 0 0.4 1.1 1.1 2.5 1.4 1.4 0.4 2.5 1.3 2.5 2.1 0 0.9 1 1.5 2.4 1.5 1.4 0 3.1 0.6 3.8 1.3 0.7 0.7 2.8 1.9 4.6 2.6 1.7 0.7 3.2 1.7 3.2 2.1 0 0.4 1.1 1.1 2.5 1.4 1.4 0.4 2.5 1.3 2.5 2.1 0 0.8 0.9 1.5 1.9 1.5 3 0 5.1 1.1 5.1 2.6 0 0.8 1 1.4 2.4 1.4 1.4 0 3.1 0.6 3.8 1.3 0.7 0.7 2.8 1.9 4.6 2.6 1.7 0.7 3.2 1.7 3.2 2.1 0 0.4 1.1 1.1 2.5 1.4 1.4 0.4 2.5 1.3 2.5 2.1 0 0.8 0.9 1.5 1.9 1.5 3 0 5.1 1.1 5.1 2.6 0 0.8 1 1.4 2.4 1.4 1.4 0 3.1 0.6 3.8 1.3 0.7 0.7 2.8 1.9 4.6 2.6 1.7 0.7 3.2 1.7 3.2 2.1 0 0.4 1.1 1.1 2.5 1.4 1.4 0.4 2.5 1.3 2.5 2.1 0 0.8 0.9 1.5 1.9 1.5 3 0 5.1 1.1 5.1 2.6 0 0.8 1 1.4 2.4 1.4 1.4 0 3.1 0.6 3.8 1.3 0.7 0.7 2.8 1.9 4.6 2.6 1.7 0.7 3.2 1.7 3.2 2.1 0 0.4 1.1 1.1 2.5 1.4 1.4 0.4 2.5 1.3 2.5 2.1 0 0.9 1 1.5 2.4 1.5 1.4 0 3.1 0.6 3.8 1.3 0.7 0.7 2.8 1.9 4.6 2.6 1.7 0.7 3.2 1.7 3.2 2.1 0 0.4 1.1 1.1 2.5 1.4 1.4 0.4 2.5 1.3 2.5 2.1 0 0.8 0.9 1.5 1.9 1.5 3 0 5.1 1.1 5.1 2.6 0 0.8 1 1.4 2.4 1.4 1.4 0 3.1 0.6 3.8 1.3 0.7 0.7 2.8 1.9 4.6 2.6 1.7 0.7 3.2 1.7 3.2 2.1 0 0.4 1.1 1.1 2.5 1.4 1.4 0.4 2.5 1.3 2.5 2.1 0 0.8 0.9 1.5 1.9 1.5 3 0 5.1 1.1 5.1 2.6 0 0.8 1 1.4 2.4 1.4 1.4 0 3.1 0.6 3.8 1.3 0.7 0.7 2.8 1.9 4.6 2.6 1.7 0.7 3.2 1.7 3.2 2.1 0 0.4 1.1 1.1 2.5 1.4 1.4 0.4 2.5 1.3 2.5 2.1 0 0.9 1 1.5 2.4 1.5 1.4 0 3.1 0.6 3.8 1.3 0.7 0.7 2.8 1.9 4.6 2.6 1.7 0.7 3.2 1.6 3.2 2 0 0.4 1.6 1.3 3.5 2 1.9 0.7 3.5 1.6 3.5 2.1 0 0.4 1.1 1.1 2.5 1.4 1.4 0.4 2.5 1.3 2.5 2.1 0 0.9 1 1.5 2.4 1.5 1.4 0 3.1 0.6 3.8 1.4 0.8 0.7 2.3 1.6 3.5 2 3.7 1.2 6.3 4.2 6.3 7.4 0 2.6 -0.5 3.3 -3.5 4.3 -1.9 0.7 -3.5 1.6 -3.5 2 0 0.4 -1.5 1.2 -3.2 2 -1.8 0.7 -3.5 1.6 -3.8 1.9 -0.9 1.2 -16.7 10 -17.8 10 -0.7 0 -1.2 0.4 -1.2 0.9 0 0.5 -1.6 1.5 -3.5 2.2 -1.9 0.7 -3.5 1.6 -3.5 1.9 0 1 -4.8 3 -7 3 -1.1 0 -2 0.6 -2 1.4 0 0.7 -2.1 2.4 -4.7 3.7 -2.6 1.3 -5.3 2.9 -6 3.6 -0.7 0.6 -2.3 1.5 -3.6 1.9 -1.2 0.4 -2.4 1 -2.7 1.4 -0.8 1.1 -16.6 10 -17.8 10 -0.6 0 -1.2 0.4 -1.4 0.8 -0.4 1.2 -16.2 10.2 -17.6 10.2 -0.7 0 -1.2 0.4 -1.2 0.9 0 0.5 -1.5 1.4 -3.2 2.2 -1.8 0.7 -3.5 1.6 -3.8 1.9 -0.9 1.2 -16.7 10 -17.8 10 -0.7 0 -1.2 0.4 -1.2 0.9 0 0.5 -1.5 1.4 -3.2 2.2 -1.8 0.7 -3.5 1.6 -3.8 1.9 -0.9 1.2 -16.7 10 -17.8 10 -0.7 0 -1.2 0.4 -1.2 0.9 0 0.5 -1.6 1.5 -3.5 2.2 -1.9 0.7 -3.5 1.6 -3.5 1.9 0 0.4 -1.9 1.5 -4.2 2.6 -2.4 1 -4.9 2.4 -5.6 3.1 -0.7 0.7 -2 1.3 -2.8 1.3 -0.8 0 -1.4 0.4 -1.4 0.9 0 0.5 -1 1.3 -2.2 1.7 -1.3 0.4 -2.5 1 -2.8 1.4 -0.8 1.1 -16.6 10 -17.8 10 -0.7 0 -1.2 0.4 -1.2 0.9 0 0.5 -1.5 1.4 -3.2 2.2 -1.8 0.7 -3.5 1.6 -3.8 1.9 -0.9 1.2 -16.7 10 -17.8 10 -0.7 0 -1.2 0.4 -1.2 0.8 0 1.3 -4.8 3.2 -8 3.2 -2.8 0 -3 -0.2 -2.9 -3.7z"/>
  <path d="M302.5 291.3 c0.9 -6 3 -11.3 4.6 -11.3 1.1 0 1.1 0.9 -0.7 12.3 -0.5 2.8 -1.1 3.7 -2.6 3.7 -1.8 0 -2 -0.4 -1.3 -4.7z"/>
  <path d="M307 278.1 c0 -2 7.3 -10.1 11.7 -12.9 4.7 -3 13 -6.2 15.8 -6.2 0.8 0 1.5 0.9 1.5 1.9 0 1.5 -1 2.1 -4.2 2.6 -2.3 0.4 -4.8 1.4 -5.6 2.1 -0.7 0.8 -2 1.4 -2.8 1.4 -0.8 0 -1.4 0.5 -1.4 1 0 0.6 -0.5 1 -1.1 1 -0.6 0 -2.2 1.4 -3.6 3 -1.3 1.7 -3.1 3 -3.9 3 -0.8 0 -1.4 0.9 -1.4 2 0 1.5 -0.7 2 -2.5 2 -1.4 0 -2.5 -0.4 -2.5 -0.9z"/>
  <path d="M330 215.5 c-18.6 -5.3 -30.9 -24.5 -27.1 -42.8 1.3 -6.2 5.7 -15.7 7.3 -15.7 0.4 0 0.8 1.6 0.8 3.5 0 1.9 -0.4 3.5 -0.8 3.5 -1.2 0 -4.2 11.2 -4.2 15.8 0 2.3 0.9 6.5 2 9.4 1.1 2.9 2 6.3 2 7.6 0 1.5 0.6 2.2 2 2.2 1.6 0 2 0.7 2 3 0 2.7 0.3 3 3 3 2.3 0 3 0.4 3 2 0 1.4 0.7 2 2.3 2 1.2 0 4.7 0.9 7.7 2.1 4.6 1.8 6.8 2 13 1.5 4.1 -0.3 7.7 -1.1 7.8 -1.6 0.2 -0.6 1.2 -1 2.3 -1 1 0 1.9 -0.4 1.9 -1 0 -0.5 0.7 -1 1.5 -1 0.8 0 1.5 -0.4 1.5 -1 0 -0.5 1.7 -1 3.8 -1 l3.7 0.1 -3.5 3 c-7.5 6.4 -21.7 9.2 -32 6.4z"/>
  <path d="M367 200.8 c0 -3.4 0.3 -3.8 2.5 -3.8 3.1 0 3.2 1.1 0 4.7 l-2.4 2.8 -0.1 -3.7z"/>
  <path d="M371 193.5 c0 -1.4 0.5 -4.5 1.2 -7 0.9 -3.3 1.7 -4.5 3.1 -4.5 1.7 0 1.8 0.5 1.2 3.8 -1.5 8.1 -5.5 13.7 -5.5 7.7z"/>
  <path d="M373 174.8 c0 -1.3 -0.9 -4.3 -2 -6.7 -1.1 -2.4 -2 -5.4 -2 -6.7 0 -1.8 -0.6 -2.4 -2.1 -2.4 -1.2 0 -2.3 -0.8 -2.6 -2 -0.3 -1.1 -1.2 -2 -2 -2 -0.8 0 -1.7 -0.8 -2 -1.8 -0.4 -1.7 -1.4 -2.2 -12 -5.9 -3.8 -1.3 -5.3 -2.3 -5.3 -3.7 0 -1.6 0.5 -1.7 3.8 -1.1 14.2 2.5 27.6 16.2 29.8 30.3 0.6 3.8 0.5 4.2 -1.5 4.2 -1.5 0 -2.1 -0.6 -2.1 -2.2z"/>
  <path d="M315.5 151 c0.8 -1.2 7.1 -5.3 9.8 -6.3 1.3 -0.5 1.7 -0.1 1.7 1.8 0 2 -0.5 2.5 -2.5 2.5 -1.6 0 -2.5 0.6 -2.5 1.5 0 1.1 -1.1 1.5 -3.6 1.5 -2.2 0 -3.3 -0.4 -2.9 -1z"/>
  <path d="M329 144.6 c0 -0.7 1 -1.6 2.3 -2 4.1 -1.1 5.7 -0.7 5.7 1.4 0 1.7 -0.7 2 -4 2 -2.7 0 -4 -0.4 -4 -1.4z"/>
 </g>
 <g fill="#06677c">
  <path d="M604.8 871.3 c-3.6 -0.9 -2 -3.3 2.2 -3.3 3.3 0 4 0.3 4 2 0 2 -2 2.4 -6.2 1.3z"/>
  <path d="M627 870.3 c0 -1.5 1.3 -2.1 7.8 -3.1 9.9 -1.5 11.2 -1.5 11.2 0.2 0 1.4 -3.8 2.5 -14.7 4.1 -3.8 0.6 -4.3 0.4 -4.3 -1.2z"/>
  <path d="M585.8 867.3 c-3.3 -0.8 -2 -3.3 1.7 -3.3 2.8 0 3.5 0.4 3.5 2 0 2 -1.4 2.3 -5.2 1.3z"/>
  <path d="M576.3 863.5 c-4.3 -1.8 -4.2 -3.5 0.2 -3.5 3.1 0 3.5 0.3 3.5 2.5 0 1.4 -0.1 2.5 -0.2 2.5 -0.2 -0.1 -1.8 -0.7 -3.5 -1.5z"/>
  <path d="M670 856.5 c0 -2.2 0.4 -2.5 3.5 -2.5 4.3 0 4.4 1 0.6 3.3 -3.8 2.2 -4.1 2.2 -4.1 -0.8z"/>
  <path d="M681 850.1 c0 -2.4 0.4 -3.1 2 -3.1 1.1 0 2 -0.7 2 -1.5 0 -1.1 1.1 -1.5 3.6 -1.5 4.3 0 3.8 0.9 -3.1 5.9 l-4.5 3.2 0 -3z"/>
  <path d="M696 837.6 c0 -3.3 0.2 -3.6 3.1 -3.6 l3 0 -2.1 3 c-3.1 4.4 -4 4.5 -4 0.6z"/>
  <path d="M538.8 837 l-2.8 -3.5 2.6 -0.3 c3.3 -0.4 3.6 -0.1 3.2 3.9 l-0.3 3.4 -2.7 -3.5z"/>
  <path d="M712 815.5 c0 -3.1 0.3 -3.5 2.5 -3.5 3 0 3 0.3 0.8 4.1 -2.3 3.8 -3.3 3.7 -3.3 -0.6z"/>
  <path d="M519.2 809.1 c-2.9 -4.9 -5.2 -9.2 -5.2 -9.5 0 -0.3 1.1 -0.6 2.5 -0.6 2.2 0 2.5 0.4 2.5 3.5 0 2.8 0.4 3.5 2 3.5 1.5 0 2 0.7 2 2.5 0 1.6 0.6 2.5 1.5 2.5 1 0 1.5 1.1 1.5 3.5 0 1.9 -0.4 3.5 -0.8 3.5 -0.4 0 -3.1 -4 -6 -8.9z"/>
  <path d="M716 807.6 c0 -3.2 0.3 -3.6 2.5 -3.6 2.4 0 2.5 0.1 1.2 3.2 -1.9 4.6 -3.7 4.8 -3.7 0.4z"/>
  <path d="M613.3 800.3 c-2.5 -0.3 -3.3 -0.9 -3.3 -2.5 0 -1.8 0.4 -2 3.1 -1.4 1.7 0.3 5.8 0.6 9 0.6 5.2 0 5.9 0.2 5.9 2 0 1.8 -0.6 2 -5.7 1.8 -3.2 0 -7.3 -0.3 -9 -0.5z"/>
  <path d="M601.3 796.3 c-0.7 -0.2 -1.3 -1.3 -1.3 -2.4 0 -1.4 -0.7 -1.9 -3 -1.9 -2.7 0 -3 -0.3 -3 -3.1 l0 -3.1 3.3 2.4 c1.7 1.4 5.1 3.5 7.5 4.7 2.3 1.2 4.2 2.6 4.2 3.1 0 1 -5.5 1.2 -7.7 0.3z"/>
  <path d="M721 793.5 c0 -2.8 0.4 -3.5 2 -3.5 2.1 0 2.4 1 1.4 4.8 -1 3.6 -3.4 2.7 -3.4 -1.3z"/>
  <path d="M504.2 783.1 c-2.9 -4.9 -5.2 -9.2 -5.2 -9.5 0 -0.3 1.1 -0.6 2.5 -0.6 2.2 0 2.5 0.4 2.5 3.5 0 2.8 0.4 3.5 2 3.5 1.5 0 2 0.7 2 2.5 0 1.6 0.6 2.5 1.5 2.5 1 0 1.5 1.1 1.5 3.5 0 1.9 -0.4 3.5 -0.8 3.5 -0.4 0 -3.1 -4 -6 -8.9z"/>
  <path d="M723 787.1 c0 -1 0.3 -3.9 0.6 -6.5 0.5 -3.7 1.1 -4.6 2.6 -4.6 2.1 0 2.1 0.5 0.2 10.3 -0.6 3 -3.4 3.7 -3.4 0.8z"/>
  <path d="M585 779.4 c0 -3.9 0.9 -3.8 4 0.6 l2.1 3 -3 0 c-2.9 0 -3.1 -0.3 -3.1 -3.6z"/>
  <path d="M652 773.8 c0 -3 1.3 -5.8 2.6 -5.8 0.9 0 1.4 1.2 1.4 3.5 0 2.8 -0.4 3.5 -2 3.5 -1.1 0 -2 -0.6 -2 -1.2z"/>
  <path d="M725 770 c0 -4.3 0.3 -5 2 -5 1.5 0 2 0.7 2 2.8 0 4.2 -1.1 7.2 -2.6 7.2 -1 0 -1.4 -1.4 -1.4 -5z"/>
  <path d="M575 763.5 c0 -2.8 -0.4 -3.5 -2 -3.5 -1.6 0 -2 -0.7 -2 -3.5 0 -2.8 -0.4 -3.5 -2 -3.5 -1.6 0 -2 -0.7 -2 -3.5 0 -2.8 -0.4 -3.5 -2 -3.5 -1.6 0 -2 -0.7 -2 -3.5 0 -2.8 -0.4 -3.5 -2 -3.5 -1.6 0 -2 -0.7 -2 -3.5 0 -1.9 0.4 -3.5 0.8 -3.5 0.7 0 20.2 33.3 20.2 34.5 0 0.3 -1.1 0.5 -2.5 0.5 -2.2 0 -2.5 -0.4 -2.5 -3.5z"/>
  <path d="M725 755.5 c0 -4.9 2.3 -6.4 3.4 -2.2 1.2 4.4 0.7 6.7 -1.4 6.7 -1.7 0 -2 -0.7 -2 -4.5z"/>
  <path d="M481.3 742.8 c-4.5 -7.9 -8.7 -15.6 -9.4 -17.3 -0.7 -1.6 -1.2 -6.8 -1.3 -11.5 0 -7.5 0.3 -9.3 3.1 -15.2 5.2 -11.1 15.9 -19.7 26.8 -21.5 3 -0.5 3.5 -0.3 3.5 1.3 0 1.4 -1.5 2.4 -5.3 3.7 -10.5 3.7 -11.7 4.2 -11.7 5.3 0 1.4 -4.3 5.4 -5.8 5.4 -0.7 0 -1.2 0.9 -1.2 2 0 1.1 -0.7 2 -1.5 2 -0.8 0 -1.5 0.9 -1.5 2.1 0 1.1 -0.7 4.3 -1.6 7 -1.1 3.4 -1.5 6.6 -1 10.2 1.1 9.9 1.8 12.7 3.1 12.7 1.4 0 2.5 2.2 2.5 5.1 0 1 0.7 1.9 1.5 1.9 1 0 1.5 1.1 1.5 3.5 0 2.8 0.4 3.5 2 3.5 1.6 0 2 0.7 2 3.5 0 2.8 0.4 3.5 2 3.5 1.6 0 2 0.7 2 3.5 0 1.9 -0.4 3.5 -0.8 3.5 -0.4 0 -4.4 -6.4 -8.9 -14.2z"/>
  <path d="M723.6 745.4 c-0.9 -6.9 -0.8 -8.4 0.8 -8.4 1.4 0 1.8 1.1 3.2 9.3 0.5 3.2 0.4 3.7 -1.4 3.7 -1.5 0 -2.1 -0.9 -2.6 -4.6z"/>
  <path d="M647.5 740 c-2 -3.8 -1.9 -4 1 -4 2.2 0 2.5 0.4 2.5 3.5 0 4.3 -1.4 4.5 -3.5 0.5z"/>
  <path d="M640.7 727.5 c-2 -3.5 -3.7 -6.7 -3.7 -7 0 -0.3 1.1 -0.5 2.5 -0.5 2.2 0 2.5 0.4 2.5 3.5 0 2.8 0.4 3.5 2 3.5 1.6 0 2 0.7 2 3.5 0 1.9 -0.4 3.5 -0.8 3.5 -0.4 0 -2.4 -2.9 -4.5 -6.5z"/>
  <path d="M336.8 732.3 c-1 -0.2 -1.8 -1.1 -1.8 -1.9 0 -1 1.3 -1.4 4.5 -1.4 3.2 0 4.5 0.4 4.5 1.4 0 1.1 -3.3 2.8 -5 2.5 -0.3 -0.1 -1.3 -0.3 -2.2 -0.6z"/>
  <path d="M345 730.1 c0 -1.7 0.6 -2.1 3 -2.1 1.7 0 3 -0.4 3 -0.9 0 -0.5 1.6 -1.5 3.5 -2.2 1.9 -0.7 3.5 -1.7 3.5 -2.1 0 -0.4 0.4 -0.8 1 -0.8 1.9 0 8.1 -7.6 11.3 -14 l3.2 -6.5 0.5 -36.9 c0.4 -27 0.8 -37 1.7 -37.3 0.6 -0.2 1.3 0.5 1.5 1.7 0.3 1.8 3.3 0.3 27.3 -13.6 14.9 -8.6 42.1 -24.3 60.5 -34.9 18.4 -10.6 47.7 -27.5 65 -37.5 17.3 -10 42.6 -24.6 56.2 -32.4 13.5 -7.7 24.3 -14.5 23.9 -14.9 -0.4 -0.4 -52.9 -30.9 -116.7 -67.7 -98.2 -56.7 -115.9 -66.6 -116.2 -65 -0.6 3.4 -2.2 2.2 -2.2 -1.5 0 -3.3 0.2 -3.5 3.5 -3.5 2.4 0 3.5 0.5 3.5 1.5 0 0.9 0.9 1.5 2.5 1.5 1.8 0 2.5 0.5 2.5 2 0 1.6 0.7 2 3.5 2 2.8 0 3.5 0.4 3.5 2 0 1.6 0.7 2 3.5 2 2.4 0 3.5 0.5 3.5 1.5 0 0.9 0.9 1.5 2.5 1.5 1.8 0 2.5 0.5 2.5 2 0 1.6 0.7 2 3.5 2 2.8 0 3.5 0.4 3.5 2 0 1.6 0.7 2 3.5 2 2.4 0 3.5 0.5 3.5 1.5 0 0.8 0.9 1.5 1.9 1.5 3 0 5.1 1.1 5.1 2.6 0 0.8 1 1.4 2.5 1.4 1.8 0 2.5 0.5 2.5 2 0 1.6 0.7 2 3.5 2 2.8 0 3.5 0.4 3.5 2 0 1.6 0.7 2 3.5 2 2.4 0 3.5 0.5 3.5 1.5 0 0.8 0.9 1.5 1.9 1.5 3 0 5.1 1.1 5.1 2.6 0 0.8 1 1.4 2.5 1.4 1.8 0 2.5 0.5 2.5 2 0 1.6 0.7 2 3.5 2 2.8 0 3.5 0.4 3.5 2 0 1.6 0.7 2 3.5 2 2.4 0 3.5 0.5 3.5 1.5 0 0.8 0.9 1.5 1.9 1.5 3 0 5.1 1.1 5.1 2.6 0 0.8 1 1.4 2.5 1.4 1.8 0 2.5 0.5 2.5 2 0 1.6 0.7 2 3.5 2 2.8 0 3.5 0.4 3.5 2 0 1.6 0.7 2 3.5 2 2.4 0 3.5 0.5 3.5 1.5 0 0.9 0.9 1.5 2.5 1.5 1.8 0 2.5 0.5 2.5 2 0 1.6 0.7 2 3.5 2 2.8 0 3.5 0.4 3.5 2 0 1.6 0.7 2 3.5 2 2.4 0 3.5 0.5 3.5 1.5 0 0.8 0.9 1.5 1.9 1.5 3 0 5.1 1.1 5.1 2.6 0 0.8 1 1.4 2.5 1.4 1.8 0 2.5 0.5 2.5 2 0 1.6 0.7 2 3.5 2 2.8 0 3.5 0.4 3.5 2 0 1.6 0.7 2 3.5 2 2.4 0 3.5 0.5 3.5 1.5 0 0.8 0.9 1.5 1.9 1.5 3 0 5.1 1.1 5.1 2.6 0 0.8 1 1.4 2.5 1.4 1.8 0 2.5 0.5 2.5 2 0 1.6 0.7 2 3.5 2 2.8 0 3.5 0.4 3.5 2 0 1.6 0.7 2 3.5 2 2.4 0 3.5 0.5 3.5 1.5 0 0.8 0.9 1.5 1.9 1.5 3 0 5.1 1.1 5.1 2.6 0 0.8 1 1.4 2.5 1.4 1.8 0 2.5 0.5 2.5 2 0 1.6 0.7 2 3.5 2 2.8 0 3.5 0.4 3.5 2 0 1.6 0.7 2 3.5 2 2.4 0 3.5 0.5 3.5 1.5 0 0.9 0.9 1.5 2.5 1.5 1.8 0 2.5 0.5 2.5 2 0 1.6 0.7 2 3.5 2 2.8 0 3.5 0.4 3.5 2 0 1.6 0.7 2 3.4 2 1.9 0 3.6 0.4 3.8 0.8 0.5 1.3 56.5 33.3 61.9 35.3 5.8 2.2 11.9 2.4 17.4 0.4 2.2 -0.8 5.2 -1.5 6.8 -1.5 2 0 2.7 -0.5 2.7 -2 0 -1.6 0.7 -2 3.6 -2 3.1 0 3.5 0.2 2.4 1.5 -0.6 0.8 -4.2 3.1 -7.8 5.1 -32.2 17.8 -67.2 38.8 -66.8 40 0.4 0.8 0.9 2.1 1.2 2.9 1.1 2.8 -4.1 1.8 -5.4 -1 -3.4 -7.3 -22.7 -36.7 -26.3 -40 -9.9 -8.9 -21.8 -11.2 -33.6 -6.5 -3.5 1.3 -6.3 2.8 -6.3 3.2 0 0.5 -0.6 0.8 -1.2 0.9 -2.3 0.1 -10.7 11.1 -12.9 16.8 -1.6 4.3 -2 7.1 -1.6 12.1 0.5 7.6 1.5 9.8 13.8 29.6 4.9 7.9 8.9 15.1 8.9 15.9 0 0.8 0.7 1.5 1.5 1.5 1 0 1.5 1.1 1.5 3.5 0 4.3 -1 4.4 -3.3 0.5 -1.6 -2.7 -2.1 -2.9 -4 -1.8 -6.8 3.5 -55 31.6 -59.2 34.3 -5.8 3.9 -61.2 35.9 -63.6 36.7 -0.8 0.3 -19.9 11.3 -42.5 24.4 -45.9 26.7 -48.6 28.1 -53.1 29 -2.9 0.6 -3.3 0.4 -3.3 -1.5z m105.3 -59.8 c0.9 -0.3 1.7 -0.9 1.7 -1.3 0 -0.4 1.5 -1.3 3.3 -2.1 1.7 -0.7 3.4 -1.6 3.7 -1.9 0.8 -1.2 16.6 -10 17.8 -10 0.6 0 1.2 -0.4 1.4 -0.8 0.4 -1.2 16.2 -10.2 17.6 -10.2 0.7 0 1.2 -0.4 1.2 -0.9 0 -0.5 1.4 -1.4 3 -2.1 1.7 -0.7 3 -1.4 3 -1.7 0 -0.2 -4 -7.5 -9 -16.2 -9.9 -17.4 -14.4 -22.5 -23.8 -26.9 -7.5 -3.5 -16.7 -3.7 -22.9 -0.4 -2.3 1.2 -5.1 2.2 -6.3 2.2 -1.1 0 -2 0.7 -2 1.5 0 0.8 -0.5 1.5 -1.1 1.5 -2.9 0 -10.5 12.1 -12.5 20 -1.5 5.9 -1.5 6.9 0 12.1 2.3 8.3 19.7 39 21.6 38.3 0.8 -0.4 2.3 -0.9 3.3 -1.1z"/>
  <path d="M720 728.5 c0 -4 2.4 -4.9 3.4 -1.2 1 3.7 0.7 4.7 -1.4 4.7 -1.6 0 -2 -0.7 -2 -3.5z"/>
  <path d="M325.8 729.9 c-2.9 -1.6 -2.1 -2.9 1.7 -2.9 2.8 0 3.5 0.4 3.5 2 0 2.2 -2.4 2.6 -5.2 0.9z"/>
  <path d="M554 726.5 c0 -2.8 -0.4 -3.5 -2 -3.5 -1.6 0 -2 -0.7 -2 -3.5 0 -2.8 -0.4 -3.5 -2 -3.5 -1.6 0 -2 -0.7 -2 -3.5 0 -1.9 0.4 -3.5 0.8 -3.5 0.7 0 12.2 19.3 12.2 20.5 0 0.3 -1.1 0.5 -2.5 0.5 -2.2 0 -2.5 -0.4 -2.5 -3.5z"/>
  <path d="M316.9 724.8 c-2.3 -1.8 -5.3 -4.8 -6.7 -6.5 l-2.5 -3.3 3.2 0 c2.8 0 3.1 0.3 3.1 3 0 2.7 0.3 3 3 3 1.7 0 3 0.5 3 1 0 0.6 0.7 1 1.5 1 0.9 0 1.5 0.9 1.5 2.5 0 3.3 -1 3.2 -6.1 -0.7z"/>
  <path d="M716 717.5 c0 -2.4 -0.5 -3.5 -1.5 -3.5 -1 0 -1.5 -1.1 -1.5 -3.5 0 -6.5 2.4 -3.7 7.1 8.3 0.7 1.9 0.5 2.2 -1.6 2.2 -2.2 0 -2.5 -0.4 -2.5 -3.5z"/>
  <path d="M304.4 707.5 c-1.9 -4.6 -1.8 -6.5 0.5 -6.5 2 0 3.1 2.5 3.1 7.3 0 3.8 -1.8 3.4 -3.6 -0.8z"/>
  <path d="M706.2 698.5 c-2.2 -4.5 -3 -10.5 -1.4 -10.5 0.9 0 5.4 7.7 7.1 12.3 1 2.4 0.8 2.7 -1.2 2.7 -1.7 0 -2.8 -1.1 -4.5 -4.5z"/>
  <path d="M536 696.5 c0 -0.8 -0.4 -1.5 -1 -1.5 -0.5 0 -1 -1.6 -1 -3.5 0 -3.3 -0.2 -3.5 -3.5 -3.5 -1.8 0 -3.8 -0.6 -4.2 -1.3 -0.9 -1.5 -10.3 -5.7 -12.7 -5.7 -1 0 -1.6 -0.9 -1.6 -2.1 0 -1.9 0.4 -2.1 3.8 -1.4 8.5 1.6 16.6 6.9 22.4 14.9 3.4 4.8 3.5 5.6 0.3 5.6 -1.6 0 -2.5 -0.6 -2.5 -1.5z"/>
  <path d="M302 496.5 c0 -197.8 0 -198.5 2 -198.5 2 0 2 0.7 2 198.5 0 197.8 0 198.5 -2 198.5 -2 0 -2 -0.7 -2 -198.5z"/>
  <path d="M697 678.5 c0 -4.3 1 -4.4 3.3 -0.6 2.2 3.8 2.2 4.1 -0.8 4.1 -2.2 0 -2.5 -0.4 -2.5 -3.5z"/>
  <path d="M607.7 669.5 c-2 -3.5 -3.7 -6.7 -3.7 -7 0 -0.3 1.1 -0.5 2.5 -0.5 2.2 0 2.5 0.4 2.5 3.5 0 2.8 0.4 3.5 2 3.5 1.6 0 2 0.7 2 3.5 0 1.9 -0.4 3.5 -0.8 3.5 -0.4 0 -2.4 -2.9 -4.5 -6.5z"/>
  <path d="M692 669.5 c0 -4.3 1 -4.4 3.3 -0.6 2.2 3.8 2.2 4.1 -0.8 4.1 -2.2 0 -2.5 -0.4 -2.5 -3.5z"/>
  <path d="M685 658.5 c0 -1.6 -0.6 -2.5 -1.5 -2.5 -0.9 0 -1.5 -0.9 -1.5 -2.5 0 -1.6 -0.6 -2.5 -1.5 -2.5 -1 0 -1.5 -1.1 -1.5 -3.5 0 -1.9 0.3 -3.5 0.8 -3.5 0.7 0 10.2 15.2 10.2 16.4 0 0.3 -1.1 0.6 -2.5 0.6 -2 0 -2.5 -0.5 -2.5 -2.5z"/>
  <path d="M596.7 651.1 c-2.2 -3.8 -2.2 -4.1 0.8 -4.1 2.2 0 2.5 0.4 2.5 3.5 0 4.3 -1 4.4 -3.3 0.6z"/>
  <path d="M591.7 643.1 c-2.2 -3.8 -2.2 -4.1 0.8 -4.1 2.2 0 2.5 0.4 2.5 3.5 0 4.3 -1 4.4 -3.3 0.6z"/>
  <path d="M583.7 630.1 c-2.2 -3.8 -2.2 -4.1 0.8 -4.1 2.2 0 2.5 0.4 2.5 3.5 0 4.3 -1 4.4 -3.3 0.6z"/>
  <path d="M578.7 622.1 c-2.2 -3.8 -2.2 -4.1 0.8 -4.1 2.2 0 2.5 0.4 2.5 3.5 0 4.3 -1 4.4 -3.3 0.6z"/>
  <path d="M657 612.5 c0 -4.3 1 -4.4 3.3 -0.6 2.2 3.8 2.2 4.1 -0.8 4.1 -2.2 0 -2.5 -0.4 -2.5 -3.5z"/>
  <path d="M652 604.5 c0 -4.3 1 -4.4 3.3 -0.6 2.2 3.8 2.2 4.1 -0.8 4.1 -2.2 0 -2.5 -0.4 -2.5 -3.5z"/>
  <path d="M644 591.5 c0 -4.3 1 -4.4 3.3 -0.6 2.2 3.8 2.2 4.1 -0.8 4.1 -2.2 0 -2.5 -0.4 -2.5 -3.5z"/>
  <path d="M639 583.5 c0 -4.3 1 -4.4 3.3 -0.6 2.2 3.8 2.2 4.1 -0.8 4.1 -2.2 0 -2.5 -0.4 -2.5 -3.5z"/>
  <path d="M712 517.7 c0 -2.6 0.4 -3.7 1.5 -3.7 0.9 0 1.5 -0.9 1.5 -2.5 0 -1.4 0.4 -2.5 0.9 -2.5 0.5 0 1.2 -2 1.5 -4.5 0.6 -3.7 1.1 -4.5 2.8 -4.5 1.8 0 1.9 0.4 1.3 3.8 -0.9 4.6 -5.2 13.6 -7.7 15.8 -1.7 1.6 -1.8 1.5 -1.8 -1.9z"/>
  <path d="M717.5 487.8 c-0.4 -2.3 -1.4 -4.8 -2.1 -5.6 -0.8 -0.7 -1.4 -2 -1.4 -2.8 0 -0.8 -0.4 -1.4 -1 -1.4 -0.5 0 -1 -1.6 -1 -3.7 0 -3.5 0 -3.6 2 -1.8 2.5 2.3 6.6 10.8 7.5 15.8 0.6 3.3 0.5 3.7 -1.3 3.7 -1.6 0 -2.2 -0.9 -2.7 -4.2z"/>
  <path d="M703 467.5 c0 -0.8 -0.9 -1.5 -1.9 -1.5 -3.3 0 -5.1 -1.1 -5.1 -3.1 0 -1.5 -0.7 -1.9 -3.5 -1.9 -2.4 0 -3.5 -0.5 -3.5 -1.5 0 -0.8 -0.9 -1.5 -1.9 -1.5 -3 0 -5.1 -1.1 -5.1 -2.6 0 -0.8 -1 -1.4 -2.5 -1.4 -1.8 0 -2.5 -0.5 -2.5 -2 0 -1.6 -0.7 -2 -3.5 -2 -2.8 0 -3.5 -0.4 -3.5 -2 0 -1.6 -0.7 -2 -3.5 -2 -2.4 0 -3.5 -0.5 -3.5 -1.5 0 -0.8 -0.9 -1.5 -1.9 -1.5 -3 0 -5.1 -1.1 -5.1 -2.6 0 -0.8 -1 -1.4 -2.5 -1.4 -1.8 0 -2.5 -0.5 -2.5 -2 0 -1.6 -0.7 -2 -3.5 -2 -2.8 0 -3.5 -0.4 -3.5 -2 0 -1.6 -0.7 -2 -3.5 -2 -2.4 0 -3.5 -0.5 -3.5 -1.5 0 -0.9 -0.9 -1.5 -2.5 -1.5 -1.8 0 -2.5 -0.5 -2.5 -2 0 -1.6 -0.7 -2 -3.5 -2 -2.8 0 -3.5 -0.4 -3.5 -2 0 -1.6 -0.7 -2 -3.5 -2 -2.8 0 -3.5 -0.4 -3.5 -2 0 -1.6 -0.7 -2 -3.5 -2 -2.4 0 -3.5 -0.5 -3.5 -1.5 0 -0.9 -0.9 -1.5 -2.5 -1.5 -1.8 0 -2.5 -0.5 -2.5 -2 0 -1.6 -0.7 -2 -3.5 -2 -2.8 0 -3.5 -0.4 -3.5 -2 0 -1.6 -0.7 -2 -3.5 -2 -2.4 0 -3.5 -0.5 -3.5 -1.5 0 -0.8 -0.9 -1.5 -1.9 -1.5 -3 0 -5.1 -1.1 -5.1 -2.6 0 -0.8 -1 -1.4 -2.5 -1.4 -1.8 0 -2.5 -0.5 -2.5 -2 0 -1.6 -0.7 -2 -3.5 -2 -2.8 0 -3.5 -0.4 -3.5 -2 0 -1.6 -0.7 -2 -3.5 -2 -2.4 0 -3.5 -0.5 -3.5 -1.5 0 -0.8 -0.9 -1.5 -1.9 -1.5 -3 0 -5.1 -1.1 -5.1 -2.6 0 -0.8 -1 -1.4 -2.5 -1.4 -1.8 0 -2.5 -0.5 -2.5 -2 0 -1.6 -0.7 -2 -3.5 -2 -2.8 0 -3.5 -0.4 -3.5 -2 0 -1.6 -0.7 -2 -3.5 -2 -2.4 0 -3.5 -0.5 -3.5 -1.5 0 -0.9 -0.9 -1.5 -2.5 -1.5 -1.8 0 -2.5 -0.5 -2.5 -2 0 -1.6 -0.7 -2 -3.5 -2 -2.8 0 -3.5 -0.4 -3.5 -2 0 -1.6 -0.7 -2 -3.5 -2 -2.4 0 -3.5 -0.5 -3.5 -1.5 0 -0.8 -0.9 -1.5 -1.9 -1.5 -3 0 -5.1 -1.1 -5.1 -2.6 0 -0.8 -1 -1.4 -2.5 -1.4 -1.8 0 -2.5 -0.5 -2.5 -2 0 -1.6 -0.7 -2 -3.5 -2 -2.8 0 -3.5 -0.4 -3.5 -2 0 -1.6 -0.7 -2 -3.5 -2 -2.4 0 -3.5 -0.5 -3.5 -1.5 0 -0.8 -0.9 -1.5 -1.9 -1.5 -3 0 -5.1 -1.1 -5.1 -2.6 0 -0.8 -1 -1.4 -2.5 -1.4 -1.8 0 -2.5 -0.5 -2.5 -2 0 -1.6 -0.7 -2 -3.5 -2 -2.8 0 -3.5 -0.4 -3.5 -2 0 -1.6 -0.7 -2 -3.5 -2 -2.4 0 -3.5 -0.5 -3.5 -1.5 0 -0.8 -0.9 -1.5 -1.9 -1.5 -3 0 -5.1 -1.1 -5.1 -2.6 0 -0.8 -1 -1.4 -2.5 -1.4 -1.8 0 -2.5 -0.5 -2.5 -2 0 -1.6 -0.7 -2 -3.5 -2 -2.8 0 -3.5 -0.4 -3.5 -2 0 -1.6 -0.7 -2 -3.5 -2 -2.4 0 -3.5 -0.5 -3.5 -1.5 0 -0.9 -0.9 -1.5 -2.5 -1.5 -1.8 0 -2.5 -0.5 -2.5 -2 0 -1.6 -0.7 -2 -3.5 -2 -2.8 0 -3.5 -0.4 -3.5 -2 0 -1.6 -0.7 -2 -3.5 -2 -2.4 0 -3.5 -0.5 -3.5 -1.5 0 -0.8 -0.9 -1.5 -1.9 -1.5 -3 0 -5.1 -1.1 -5.1 -2.6 0 -0.8 -1 -1.4 -2.5 -1.4 -1.8 0 -2.5 -0.5 -2.5 -2 0 -1.6 -0.7 -2 -3.5 -2 -2.8 0 -3.5 -0.4 -3.5 -2 0 -1.6 -0.7 -2 -3.5 -2 -2.4 0 -3.5 -0.5 -3.5 -1.5 0 -0.8 -0.9 -1.5 -1.9 -1.5 -3 0 -5.1 -1.1 -5.1 -2.6 0 -0.8 -1 -1.4 -2.5 -1.4 -1.8 0 -2.5 -0.5 -2.5 -2 0 -1.6 -0.7 -2 -3.5 -2 -2.8 0 -3.5 -0.4 -3.5 -2 0 -1.6 -0.7 -2 -3.5 -2 -2.4 0 -3.5 -0.5 -3.5 -1.5 0 -0.8 -0.9 -1.5 -1.9 -1.5 -3.5 0 -5.1 -1.2 -5.1 -3.7 0 -1.6 0.5 -2.3 1.3 -2 0.7 0.2 75.3 43.2 165.7 95.4 90.5 52.2 167 96.4 170.1 98.1 3.1 1.8 6.2 3.9 6.9 4.7 1.1 1.3 0.7 1.5 -2.4 1.5 -2.5 0 -3.6 -0.4 -3.6 -1.5z"/>
  <path d="M336.8 216.3 c-1 -0.2 -1.8 -1.1 -1.8 -1.9 0 -1 1.3 -1.4 4.5 -1.4 3.2 0 4.5 0.4 4.5 1.4 0 1.1 -3.3 2.8 -5 2.5 -0.3 -0.1 -1.3 -0.3 -2.2 -0.6z"/>
  <path d="M353 211.6 c0 -2.3 0.4 -2.6 3.5 -2.6 5.3 0 4.6 1.3 -2.7 4.8 -0.5 0.2 -0.8 -0.8 -0.8 -2.2z"/>
  <path d="M318.3 209.5 l-2.8 -2.4 3.8 -0.1 c3.3 0 3.7 0.3 3.7 2.5 0 3.1 -1.1 3.2 -4.7 0z"/>
  <path d="M366 201.5 c0 -1.9 0.5 -3.5 1 -3.5 0.6 0 1 -0.7 1 -1.5 0 -0.9 0.9 -1.5 2.5 -1.5 1.4 0 2.5 0.4 2.5 0.8 0 1.1 -5.8 9.2 -6.5 9.2 -0.3 0 -0.5 -1.6 -0.5 -3.5z"/>
  <path d="M373 184.5 c0 -2.8 0.4 -3.5 2 -3.5 2.1 0 2.4 1 1.4 4.8 -1 3.6 -3.4 2.7 -3.4 -1.3z"/>
  <path d="M302.6 182.4 c-0.9 -3.6 0.2 -8.4 2 -8.4 1 0 1.4 1.4 1.4 5.5 0 4 -0.4 5.5 -1.4 5.5 -0.8 0 -1.7 -1.2 -2 -2.6z"/>
  <path d="M373 174.5 c0 -4 2.4 -4.9 3.4 -1.2 1 3.7 0.7 4.7 -1.4 4.7 -1.6 0 -2 -0.7 -2 -3.5z"/>
  <path d="M305.7 164.3 c1 -2.7 5.1 -9 6.3 -9.8 0.6 -0.4 1 0.7 1 2.9 0 2.5 -0.4 3.6 -1.5 3.6 -0.9 0 -1.5 0.9 -1.5 2.5 0 2 -0.5 2.5 -2.5 2.5 -1.9 0 -2.3 -0.4 -1.8 -1.7z"/>
  <path d="M323 146.9 c0 -1.3 5.3 -3.5 10.8 -4.4 3.7 -0.6 4.2 -0.4 4.2 1.2 0 1.4 -1.2 2.1 -5.3 3.1 -6.5 1.5 -9.7 1.5 -9.7 0.1z"/>
  <path d="M342 144 c0 -2.1 1 -2.4 4.8 -1.4 3.6 1 2.7 3.4 -1.3 3.4 -2.8 0 -3.5 -0.4 -3.5 -2z"/>
 </g>
 <g fill="#1a8ba3">
  <path d="M474 729.6 c-1.1 -2.4 -2.4 -6 -2.7 -8 -0.5 -3.1 -0.3 -3.6 1.3 -3.6 1.4 0 2.3 1.4 3.7 5.8 3.1 10.1 1.7 13.9 -2.3 5.8z"/>
  <path d="M327.6 730.4 c-6.4 -2.3 -13.5 -7.4 -17.2 -12.2 -4.1 -5.4 -4.2 -6.2 -0.9 -6.2 1.8 0 2.5 0.5 2.5 2 0 1.1 0.6 2 1.3 2 1.9 0 5.7 4.3 5.7 6.3 0 1.2 0.9 1.7 3 1.7 1.7 0 3 0.5 3 1 0 0.6 0.9 1 2 1 1.1 0 2 0.5 2 1 0 0.6 1.4 1 3 1 2.3 0 3 0.4 3 2 0 2.4 -1.8 2.5 -7.4 0.4z"/>
  <path d="M344 730.2 c0 -2 3.2 -3.2 8.6 -3.2 5.3 0 1.7 3.3 -4.9 4.5 -3.3 0.6 -3.7 0.5 -3.7 -1.3z"/>
  <path d="M359 724.1 c0 -2.9 0.3 -3.1 3.5 -3.1 3.3 0 3.5 -0.2 3.5 -3.4 0 -1.9 0.4 -3.6 0.8 -3.8 1.2 -0.5 6.2 -12.3 6.2 -14.7 0 -1.5 0.6 -2.1 2.1 -2.1 2 0 2.1 0.4 1.5 4.3 -1.4 8.7 -7.6 18.7 -14.7 23.8 l-2.9 2 0 -3z"/>
  <path d="M471.5 706.3 c0.9 -5 5 -13.5 7.5 -15.8 2 -1.8 2 -1.7 2 1.8 0 2.1 -0.4 3.7 -1 3.7 -0.5 0 -1 0.6 -1 1.4 0 0.8 -0.6 2.1 -1.4 2.8 -0.7 0.8 -1.7 3.3 -2.1 5.6 -0.5 3.3 -1.1 4.2 -2.7 4.2 -1.8 0 -1.9 -0.4 -1.3 -3.7z"/>
  <path d="M303.6 704.8 c-1 -3.8 -0.7 -4.8 1.4 -4.8 1.6 0 2 0.7 2 3.5 0 4 -2.4 4.9 -3.4 1.3z"/>
  <path d="M537 697 c0 -2.3 -0.4 -3 -2 -3 -1.5 0 -2 -0.7 -2 -2.5 0 -2 -0.5 -2.5 -2.5 -2.5 -1.6 0 -2.5 -0.6 -2.5 -1.5 0 -0.8 -0.6 -1.5 -1.4 -1.5 -0.8 0 -3.8 -1.1 -6.8 -2.5 -2.9 -1.4 -6.3 -2.5 -7.5 -2.5 -1.7 0 -2.3 -0.6 -2.3 -2.1 0 -2 0.4 -2.1 4.2 -1.5 9.5 1.5 18.7 7.5 24.4 16 1.9 2.8 3.4 5.4 3.4 5.8 0 0.5 -1.1 0.8 -2.5 0.8 -2.1 0 -2.5 -0.5 -2.5 -3z"/>
  <path d="M485.3 684.5 c3.6 -3.2 4.7 -3.1 4.7 0 0 2.2 -0.4 2.5 -3.7 2.5 l-3.8 -0.1 2.8 -2.4z"/>
  <path d="M491 681.9 c0 -1.2 5.1 -3.5 10.3 -4.4 3.2 -0.6 3.7 -0.5 3.7 1.2 0 1.4 -1.2 2.2 -4.5 3.1 -5.6 1.5 -9.5 1.5 -9.5 0.1z"/>
  <path d="M434.2 660 c-10.3 -18.3 -13.2 -25.3 -13.2 -32.5 0 -9.8 5.5 -22.3 12.3 -28.1 1.6 -1.4 5.7 -4 9.1 -5.7 5.6 -2.9 6.9 -3.2 15.6 -3.2 8.7 0 10.1 0.3 16 3.2 3.6 1.8 8.4 5.1 10.7 7.5 2.2 2.4 8.6 12.2 14.1 21.9 l9.9 17.6 -27.5 15.9 c-15.2 8.7 -29.7 17.1 -32.2 18.6 l-4.7 2.7 -10.1 -17.9z"/>
  <path d="M562.8 596.6 c-3.2 -5.1 -5.8 -9.6 -5.8 -10 0 -0.3 1.1 -0.6 2.5 -0.6 2 0 2.5 0.5 2.5 2.5 0 1.6 0.6 2.5 1.5 2.5 0.8 0 1.5 0.7 1.5 1.5 0 0.8 0.5 1.5 1 1.5 0.6 0 1 1.1 1 2.5 0 1.6 0.6 2.5 1.5 2.5 1 0 1.5 1.1 1.5 3.5 0 1.9 -0.3 3.5 -0.7 3.5 -0.5 0 -3.4 -4.2 -6.5 -9.4z"/>
  <path d="M552.2 579.6 c-1.7 -3 -3.2 -5.7 -3.2 -6 0 -0.3 1.1 -0.6 2.5 -0.6 2 0 2.5 0.5 2.5 2.5 0 1.6 0.6 2.5 1.5 2.5 1 0 1.5 1.1 1.5 3.5 0 1.9 -0.3 3.5 -0.8 3.5 -0.4 0 -2.2 -2.4 -4 -5.4z"/>
  <path d="M547 570.1 c-1.6 -3.1 -1.2 -5.1 1 -5.1 1.6 0 2 0.7 2 3.5 0 3.9 -1.4 4.6 -3 1.6z"/>
  <path d="M628 566.5 c0 -1.6 -0.6 -2.5 -1.5 -2.5 -0.9 0 -1.5 -0.9 -1.5 -2.5 0 -1.6 -0.6 -2.5 -1.5 -2.5 -0.8 0 -1.5 -0.7 -1.5 -1.5 0 -0.8 -0.4 -1.5 -1 -1.5 -0.5 0 -1 -1.1 -1 -2.5 0 -1.6 -0.6 -2.5 -1.5 -2.5 -0.8 0 -1.5 -0.7 -1.5 -1.5 0 -0.8 -0.4 -1.5 -1 -1.5 -0.5 0 -1 -1.1 -1 -2.5 0 -1.6 -0.6 -2.5 -1.5 -2.5 -1 0 -1.5 -1 -1.5 -3 0 -2.3 -0.4 -3 -2 -3 -1.6 0 -2 -0.7 -2 -3.5 0 -3.3 -0.2 -3.5 -3.5 -3.5 -1.9 0 -3.5 -0.4 -3.5 -1 0 -0.5 -0.7 -1 -1.5 -1 -0.8 0 -1.5 -0.7 -1.5 -1.5 0 -0.8 -0.9 -1.5 -2 -1.5 -1.1 0 -4 -0.5 -6.5 -1.2 -3.3 -0.9 -4.5 -1.7 -4.5 -3.1 0 -1.7 0.5 -1.8 3.8 -1.2 5.8 1 13.5 4.9 18.1 9 3.5 3.2 23.8 33.9 25.7 39 0.5 1.1 -0.1 1.5 -2 1.5 -2.1 0 -2.6 -0.5 -2.6 -2.5z"/>
  <path d="M544.6 559.3 c-1.4 -6.7 3.5 -22.4 8.4 -26.8 2 -1.8 2 -1.7 2 1.8 0 2.1 -0.4 3.7 -0.9 3.7 -0.5 0 -1.2 1.1 -1.5 2.4 -0.3 1.4 -1.3 3.1 -2.1 4 -1 1 -1.8 4.4 -2.2 9.6 -0.4 5.5 -1 8 -1.9 8 -0.7 0 -1.5 -1.2 -1.8 -2.7z"/>
  <path d="M672 530.7 c-6.3 -2.7 -59.5 -33.2 -62.4 -35.9 -1.9 -1.8 -1.9 -1.8 1.2 -1.8 3.2 0 8.2 1.8 8.2 3 0 0.3 1.6 1.2 3.5 1.9 1.9 0.7 3.5 1.7 3.5 2.2 0 0.5 0.5 0.9 1.2 0.9 1.1 0 16.9 8.8 17.8 10 0.3 0.3 2 1.2 3.8 1.9 1.7 0.8 3.2 1.7 3.2 2.2 0 0.5 0.5 0.9 1.1 0.9 0.5 0 5.9 2.7 11.9 6.1 6.2 3.5 12.6 6.3 14.9 6.6 3.1 0.4 4.1 1 4.1 2.4 0 2.7 -5 2.5 -12 -0.4z"/>
  <path d="M686 531.1 c0 -1.6 0.6 -2.1 2.6 -2.1 3.2 0 14.6 -4.9 15.7 -6.7 0.4 -0.7 2.1 -1.3 3.7 -1.3 2.7 0 3 -0.3 3 -3 0 -1.6 0.5 -3 1 -3 0.6 0 1 -0.7 1 -1.5 0 -0.8 0.7 -1.5 1.5 -1.5 0.8 0 1.5 -0.9 1.5 -2 0 -1.1 0.5 -4 1.2 -6.5 0.9 -3.3 1.7 -4.5 3.1 -4.5 1.7 0 1.8 0.5 1.2 3.8 -1 6 -5 13.7 -9.4 18.5 -5.1 5.5 -14.5 10.6 -21.1 11.4 -4.6 0.5 -5 0.4 -5 -1.6z"/>
  <path d="M572 521.6 c0 -1.3 2.8 -2.6 5.8 -2.6 0.6 0 1.2 0.9 1.2 2 0 1.6 -0.7 2 -3.5 2 -2.3 0 -3.5 -0.5 -3.5 -1.4z"/>
  <path d="M717.2 488.5 c-0.7 -2.5 -1.2 -5.4 -1.2 -6.5 0 -1.1 -0.7 -2 -1.5 -2 -0.8 0 -1.5 -0.7 -1.5 -1.5 0 -0.8 -0.4 -1.5 -1 -1.5 -0.5 0 -1 -1.6 -1 -3.5 0 -3.3 -0.2 -3.5 -3.5 -3.5 -1.9 0 -3.5 -0.4 -3.5 -1 0 -0.5 -0.7 -1 -1.5 -1 -0.9 0 -1.5 -0.9 -1.5 -2.5 0 -3.2 0.8 -3.1 5.6 0.4 7.5 5.4 13.3 14.5 14.9 23.4 0.6 3.2 0.5 3.7 -1.2 3.7 -1.4 0 -2.2 -1.2 -3.1 -4.5z"/>
 </g>
 <g fill="#4e8b9a">
  <path d="M605 871.3 c-7.1 -0.8 -20.7 -4.6 -29.2 -8.3 -19 -8.2 -36.2 -22.8 -48.2 -40.8 -6 -9 -46.6 -79.3 -46.6 -80.6 0 -0.3 1.1 -0.6 2.5 -0.6 2.2 0 2.5 0.4 2.5 3.5 0 2.8 0.4 3.5 2 3.5 1.6 0 2 0.7 2 3.5 0 2.8 0.4 3.5 1.9 3.5 2 0 3.1 1.8 3.1 5.1 0 1 0.6 1.9 1.4 1.9 1.5 0 2.6 2.1 2.6 5.1 0 1 0.6 1.9 1.4 1.9 1.5 0 2.6 2.1 2.6 5.1 0 1 0.6 1.9 1.4 1.9 1.5 0 2.6 2.1 2.6 5.1 0 1 0.7 1.9 1.5 1.9 0.9 0 1.5 0.9 1.5 2.5 0 1.5 0.6 2.5 1.4 2.5 1.5 0 2.6 2.1 2.6 5.1 0 1 0.6 1.9 1.4 1.9 1.7 0 2.6 2.2 2.6 6.1 0 2.2 0.5 2.9 2 2.9 1.5 0 2 0.7 2 2.5 0 1.6 0.6 2.5 1.5 2.5 0.9 0 1.5 0.9 1.5 2.5 0 1.6 0.6 2.5 1.5 2.5 0.8 0 1.5 0.7 1.5 1.5 0 0.8 0.5 1.5 1 1.5 0.6 0 1 0.7 1 1.5 0 0.8 0.5 1.5 1 1.5 0.6 0 1 0.7 1 1.5 0 0.8 0.5 1.5 1 1.5 0.6 0 1 0.8 1 1.9 0 1 0.9 2.1 2 2.4 1.5 0.4 2 1.4 2 3.6 0 2.6 0.4 3.1 2.3 3.1 2.9 0 8.7 5.9 8.7 8.8 0 1.8 0.6 2.2 3 2.2 2 0 3 0.5 3 1.5 0 0.8 0.9 1.5 2 1.5 1.1 0 2 0.5 2 1 0 0.6 0.7 1 1.5 1 0.8 0 1.5 0.5 1.5 1 0 0.6 0.7 1 1.5 1 0.8 0 1.5 0.7 1.5 1.5 0 0.8 0.9 1.5 2 1.5 2.4 0 11 4.1 11 5.2 0 0.4 1.1 0.8 2.5 0.8 1.4 0 2.5 0.5 2.5 1 0 0.6 1.1 1 2.5 1 1.4 0 2.5 0.5 2.5 1 0 0.6 1 1 2.3 1 1.2 0 5.4 0.7 9.2 1.5 3.9 0.8 8.7 1.5 10.8 1.5 3 0 3.7 0.4 3.7 2 0 2.1 -0.7 2.2 -9 1.3z"/>
  <path d="M624 870 c0 -1.6 0.7 -2 3.8 -2 2 -0.1 6.6 -0.7 10.2 -1.6 3.6 -0.8 8.2 -1.7 10.3 -2.1 2 -0.3 3.7 -0.9 3.7 -1.4 0 -0.4 1.7 -1.1 3.8 -1.5 2 -0.4 3.9 -1 4.2 -1.4 0.9 -1.4 8.9 -5 11 -5 1.1 0 2 -0.7 2 -1.5 0 -0.8 1.1 -1.7 2.5 -2.1 1.4 -0.3 2.5 -1 2.5 -1.5 0 -0.5 1.6 -0.9 3.7 -0.9 3.5 0 3.5 0.1 1.9 1.9 -2.7 3 -19.4 11.7 -28.6 14.9 -7.6 2.6 -24.3 6.2 -29.2 6.2 -1.1 0 -1.8 -0.7 -1.8 -2z"/>
  <path d="M686 846.1 c0 -2.9 0.3 -3.1 3.5 -3.1 3.2 0 3.5 -0.3 3.5 -2.9 0 -3.6 2 -5.3 5.7 -4.9 l2.8 0.3 -5 4.8 c-2.7 2.7 -6.2 5.8 -7.7 6.9 l-2.8 1.9 0 -3z"/>
  <path d="M702 830.8 c0 -2.7 0.4 -3.8 1.5 -3.8 0.8 0 1.5 -0.9 1.5 -2 0 -1.1 0.5 -2 1 -2 0.6 0 1 -0.7 1 -1.5 0 -0.8 0.5 -1.5 1 -1.5 0.6 0 1 -0.7 1 -1.5 0 -0.8 0.9 -1.5 2 -1.5 1.5 0 2 -0.7 2 -3 0 -3.2 1.9 -8 3.2 -8 0.4 0 0.8 -0.8 0.8 -1.7 0 -2 3.1 -10.5 4 -11.3 0.4 -0.3 1.3 -4.7 2 -9.7 1.2 -8 1.7 -9.3 3.3 -9.3 1.7 0 1.8 0.5 1.2 5.3 -2.4 17.7 -11.6 39 -22 51.2 l-3.4 4 -0.1 -3.7z"/>
  <path d="M614 799.2 c0 -1.7 0.9 -1.9 7.4 -1.8 6.5 0 8.2 -0.3 14.2 -3.4 7.8 -4 12.1 -8.9 15.3 -17.5 3 -8 2.9 -19.4 -0.3 -28.9 -3.9 -11.4 -57.3 -104.1 -80.3 -139.2 -1.8 -2.8 -3.3 -5.4 -3.3 -5.8 0 -0.4 1.2 -0.6 2.8 -0.4 2.1 0.2 2.8 0.9 3 3.1 0.2 1.5 0.9 2.7 1.8 2.7 0.8 0 1.4 1 1.4 2.5 0 1.6 0.6 2.5 1.5 2.5 0.8 0 1.5 0.7 1.5 1.5 0 0.8 0.5 1.5 1 1.5 0.6 0 1 1.1 1 2.5 0 1.6 0.6 2.5 1.5 2.5 0.8 0 1.5 0.7 1.5 1.5 0 0.8 0.5 1.5 1 1.5 0.6 0 1 1.1 1 2.5 0 1.6 0.6 2.5 1.5 2.5 0.9 0 1.5 0.9 1.5 2.5 0 1.6 0.6 2.5 1.5 2.5 0.8 0 1.5 0.7 1.5 1.5 0 0.8 0.5 1.5 1 1.5 0.6 0 1 1.1 1 2.5 0 1.6 0.6 2.5 1.5 2.5 0.8 0 1.5 0.7 1.5 1.5 0 0.8 0.5 1.5 1 1.5 0.6 0 1 1.1 1 2.5 0 1.6 0.6 2.5 1.5 2.5 0.9 0 1.5 0.9 1.5 2.5 0 1.6 0.6 2.5 1.5 2.5 0.9 0 1.5 0.9 1.5 2.5 0 1.6 0.6 2.5 1.5 2.5 1 0 1.5 1.1 1.5 3.5 0 2.8 0.4 3.5 2 3.5 1.6 0 2 0.7 2 3.5 0 2.8 0.4 3.5 1.9 3.5 2 0 3.1 1.8 3.1 5.1 0 1 0.6 1.9 1.4 1.9 1.5 0 2.6 2.1 2.6 5.1 0 1 0.6 1.9 1.4 1.9 1.5 0 2.6 2.1 2.6 5.1 0 1 0.6 1.9 1.4 1.9 1.5 0 2.6 2.1 2.6 5.1 0 1 0.6 1.9 1.4 1.9 1.5 0 2.6 2.1 2.6 5.1 0 1 0.6 1.9 1.4 1.9 1.5 0 2.6 2.1 2.6 5.1 0 1 0.6 1.9 1.4 1.9 1.5 0 2.6 2.1 2.6 5.1 0 1 0.6 1.9 1.4 1.9 1.7 0 2.6 2.2 2.6 6.1 0 2.2 0.5 2.9 2 2.9 1.5 0 2.2 0.9 2.7 3 0.3 1.7 0.9 3 1.4 3 0.5 0 1.9 3.3 3.1 7.3 3.2 10.1 3.2 26.6 -0.1 35 -1.2 3.1 -2.7 5.7 -3.2 5.7 -0.5 0 -0.9 0.7 -0.9 1.5 0 1 -1 1.5 -3 1.5 -2.7 0 -3 0.3 -3 3 0 1.7 -0.5 3 -1.1 3 -0.6 0 -1.7 0.7 -2.5 1.5 -2.4 2.4 -11.3 4.5 -19.1 4.5 -6.4 0 -7.3 -0.2 -7.3 -1.8z"/>
  <path d="M605.3 798.3 c-0.7 -0.2 -1.3 -1.1 -1.3 -1.9 0 -0.9 -1.1 -1.4 -3 -1.4 -1.6 0 -3 -0.4 -3 -1 0 -0.5 -0.7 -1 -1.5 -1 -1 0 -1.5 -1 -1.5 -3 l0 -3 5.3 3.4 c2.8 1.9 6.9 4 9 4.7 4.6 1.6 4.9 3.9 0.5 3.8 -1.8 0 -3.9 -0.3 -4.5 -0.6z"/>
  <path d="M584 780.5 c0 -0.8 -0.4 -1.5 -1 -1.5 -0.5 0 -1 -0.5 -1 -1.1 0 -0.6 -0.7 -1.7 -1.5 -2.5 -0.8 -0.9 -1.5 -2.6 -1.5 -4 0 -1.5 -0.6 -2.4 -1.5 -2.4 -0.9 0 -1.5 -0.9 -1.5 -2.5 0 -1.5 -0.6 -2.5 -1.4 -2.5 -1.5 0 -2.6 -2.1 -2.6 -5.1 0 -1 -0.6 -1.9 -1.4 -1.9 -1.5 0 -2.6 -2.1 -2.6 -5.1 0 -1 -0.6 -1.9 -1.4 -1.9 -1.5 0 -2.6 -2.1 -2.6 -5.1 0 -1 -0.6 -1.9 -1.4 -1.9 -1.7 0 -2.6 -2.2 -2.6 -6.1 0 -2.2 -0.5 -2.9 -1.9 -2.9 -2 0 -3.1 -1.8 -3.1 -5.1 0 -1 -0.6 -1.9 -1.4 -1.9 -1.5 0 -2.6 -2.1 -2.6 -5.1 0 -1 -0.6 -1.9 -1.4 -1.9 -1.5 0 -2.6 -2.1 -2.6 -5.1 0 -1 -0.6 -1.9 -1.4 -1.9 -0.8 0 -1.7 -0.7 -2 -1.6 -0.9 -2.3 -0.7 -7.4 0.2 -7.4 0.5 0 8.7 13.8 18.2 30.7 9.6 16.9 19.8 34.4 22.6 39 l5.3 8.3 -3 0 c-1.9 0 -2.9 -0.5 -2.9 -1.5z"/>
  <path d="M725 762.5 c0 -6.6 0.3 -8.5 1.4 -8.5 1.6 0 2.6 3.1 2.6 8.5 0 5.4 -1 8.5 -2.6 8.5 -1.1 0 -1.4 -1.9 -1.4 -8.5z"/>
  <path d="M722.7 741.7 c-0.9 -5 -1.7 -10 -1.7 -10.9 0 -1 -0.4 -1.8 -1 -1.8 -0.5 0 -1 -1.1 -1 -2.5 0 -1.4 -0.4 -2.5 -1 -2.5 -0.5 0 -1 -1.1 -1 -2.5 0 -1.4 -0.4 -2.5 -1 -2.5 -0.5 0 -1 -1.6 -1 -3.5 0 -2.3 -0.5 -3.5 -1.4 -3.5 -1.7 0 -2.6 -2.2 -2.6 -6.2 0 -12.1 13.5 21.4 16.5 41 0.6 3.6 0.4 4.2 -1.2 4.2 -1.5 0 -2.1 -1.6 -3.6 -9.3z"/>
  <path d="M302.5 698 c-0.9 -4 0.3 -9 2.1 -9 1 0 1.4 1.5 1.4 6 0 4.5 -0.4 6 -1.4 6 -0.8 0 -1.7 -1.3 -2.1 -3z"/>
  <path d="M699.2 685.5 c-0.7 -1.4 -1.2 -3.9 -1.2 -5.5 0 -2.3 -0.5 -3 -1.9 -3 -2 0 -3.1 -1.8 -3.1 -5.1 0 -1 -0.6 -1.9 -1.4 -1.9 -1.5 0 -2.6 -2.1 -2.6 -5.1 0 -1 -0.7 -1.9 -1.5 -1.9 -0.9 0 -1.5 -0.9 -1.5 -2.5 0 -1.6 -0.6 -2.5 -1.5 -2.5 -0.9 0 -1.5 -0.9 -1.5 -2.5 0 -1.6 -0.6 -2.5 -1.5 -2.5 -0.9 0 -1.5 -0.9 -1.5 -2.5 0 -1.5 -0.6 -2.5 -1.5 -2.5 -0.8 0 -1.7 -1.1 -2.1 -2.5 -0.3 -1.4 -1 -2.5 -1.4 -2.5 -0.5 0 -1.2 -1 -1.6 -2.2 -0.3 -1.2 -1.3 -2.8 -2 -3.6 -0.8 -0.7 -1.4 -2.4 -1.4 -3.8 0 -1.5 -0.6 -2.4 -1.5 -2.4 -0.8 0 -1.5 -0.7 -1.5 -1.5 0 -0.8 -0.4 -1.5 -1 -1.5 -0.5 0 -1 -1.6 -1 -3.5 0 -3.1 -0.3 -3.5 -2.5 -3.5 -1.6 0 -2.5 -0.6 -2.5 -1.5 0 -0.8 -0.4 -1.5 -1 -1.5 -0.5 0 -1 -1.1 -1 -2.5 0 -1.6 -0.6 -2.5 -1.5 -2.5 -0.8 0 -1.5 -0.7 -1.5 -1.5 0 -0.8 -0.4 -1.5 -1 -1.5 -0.5 0 -1 -1.1 -1 -2.5 0 -1.6 -0.6 -2.5 -1.5 -2.5 -0.8 0 -1.5 -0.7 -1.5 -1.5 0 -0.8 -0.4 -1.5 -1 -1.5 -0.5 0 -1.2 -1.1 -1.6 -2.5 -0.3 -1.4 -1 -2.5 -1.5 -2.5 -0.5 0 -0.9 -1.1 -0.9 -2.5 0 -1.6 -0.6 -2.5 -1.5 -2.5 -0.8 0 -1.5 -0.7 -1.5 -1.5 0 -0.8 -0.4 -1.5 -1 -1.5 -0.5 0 -1 -1.1 -1 -2.5 0 -1.6 -0.6 -2.5 -1.5 -2.5 -0.8 0 -1.5 -0.7 -1.5 -1.5 0 -0.8 -0.4 -1.5 -1 -1.5 -0.5 0 -1.2 -1.1 -1.6 -2.5 -0.3 -1.4 -1 -2.5 -1.5 -2.5 -0.5 0 -0.9 -1.6 -0.9 -3.5 0 -1.9 0.3 -3.5 0.8 -3.5 0.4 0 6.3 9.1 13.2 20.3 6.8 11.1 15.3 24.4 18.8 29.6 9.3 13.9 40.2 66.4 40.2 68.5 0 0.3 -1.1 0.6 -2.3 0.6 -1.6 0 -2.8 -0.9 -3.5 -2.5z"/>
  <path d="M373.1 461.8 l0.4 -172.3 -2.2 -4.7 c-2.7 -5.9 -8.4 -13.7 -10 -13.8 -0.7 0 -1.3 -0.4 -1.3 -1 0 -0.5 -0.7 -1 -1.5 -1 -0.8 0 -1.5 -0.4 -1.5 -0.9 0 -0.5 -1.1 -1.2 -2.5 -1.5 -1.8 -0.5 -2.5 -1.3 -2.5 -3.1 0 -2.2 0.2 -2.4 2.5 -1.5 1.4 0.5 5.2 2.7 8.3 4.8 3.1 2.1 80.5 47 172 99.7 91.4 52.8 166.2 96.3 166.2 96.7 0 1.2 -5.1 1 -10.9 -0.4 -8.8 -2 -13 -0.3 -42.7 16.8 -14.8 8.6 -28.1 16.2 -29.6 17 -2.7 1.4 -4.7 0.3 -121 -66.8 -65 -37.6 -118.5 -68.4 -119 -68.6 -0.4 -0.2 -0.8 61.1 -0.8 136.2 l0 136.6 -2.1 0 -2.2 0 0.4 -172.2z"/>
  <path d="M560.7 593.1 c-2.2 -3.8 -2.2 -4.1 0.8 -4.1 2.2 0 2.5 0.4 2.5 3.5 0 4.3 -1 4.4 -3.3 0.6z"/>
  <path d="M555.7 585.1 c-2.2 -3.8 -2.2 -4.1 0.8 -4.1 2.2 0 2.5 0.4 2.5 3.5 0 4.3 -1 4.4 -3.3 0.6z"/>
  <path d="M547.4 570.4 c-0.8 -1.9 -1.7 -4.8 -2.1 -6.5 -0.5 -2.5 -0.2 -2.9 1.6 -2.9 1.7 0 2.1 0.6 2.1 3 0 1.7 0.5 3 1 3 0.6 0 1 1.6 1 3.5 0 4.5 -1.7 4.5 -3.6 -0.1z"/>
  <path d="M623 557.5 c0 -4.3 1 -4.4 3.3 -0.6 2.2 3.8 2.2 4.1 -0.8 4.1 -2.2 0 -2.5 -0.4 -2.5 -3.5z"/>
  <path d="M618 549.5 c0 -4.3 1 -4.4 3.3 -0.6 2.2 3.8 2.2 4.1 -0.8 4.1 -2.2 0 -2.5 -0.4 -2.5 -3.5z"/>
  <path d="M545.5 548.3 c1.2 -6.6 4.5 -10.2 4.5 -4.9 0 5.4 -1.2 8.6 -3.2 8.6 -1.8 0 -1.9 -0.4 -1.3 -3.7z"/>
  <path d="M610 536.3 l0.1 -3.8 2.4 2.8 c3.2 3.6 3.1 4.7 0 4.7 -2.2 0 -2.5 -0.4 -2.5 -3.7z"/>
  <path d="M602 527.9 l0 -3 3 2.1 c4.4 3.1 4.5 4 0.6 4 -3.3 0 -3.6 -0.2 -3.6 -3.1z"/>
  <path d="M556.5 529 c0.3 -0.5 1.9 -1.9 3.5 -3 l3 -2.1 0 3 c0 2.9 -0.3 3.1 -3.6 3.1 -2 0 -3.3 -0.4 -2.9 -1z"/>
  <path d="M594 523.5 c0 -2.4 0.1 -2.5 3.2 -1.2 4.6 1.9 4.8 3.7 0.4 3.7 -3.2 0 -3.6 -0.3 -3.6 -2.5z"/>
  <path d="M565 523.9 c0 -1.1 6 -3.9 8.5 -3.9 2.4 0 1.8 3.7 -0.7 4.4 -3.6 0.9 -7.8 0.7 -7.8 -0.5z"/>
  <path d="M584 521 c0 -2.1 1 -2.4 4.8 -1.4 3.6 1 2.7 3.4 -1.3 3.4 -2.8 0 -3.5 -0.4 -3.5 -2z"/>
  <path d="M302.5 301 c-1.6 -7.1 2.3 -21 7.4 -27 l3 -3.5 0.1 3.8 c0 2 -0.4 3.7 -0.9 3.7 -0.5 0 -1.2 1.1 -1.5 2.4 -0.3 1.4 -1.3 3.2 -2.2 4 -1 1.1 -1.7 4.4 -2.1 10.6 -0.4 6.3 -1 9 -1.9 9 -0.7 0 -1.5 -1.4 -1.9 -3z"/>
  <path d="M323 263.9 c0 -1.3 5.6 -3.7 10.9 -4.5 3.6 -0.6 4.1 -0.4 4.1 1.2 0 1.5 -1.2 2.2 -5.3 3.2 -6.5 1.5 -9.7 1.5 -9.7 0.1z"/>
  <path d="M342 261 c0 -2.1 1 -2.4 4.8 -1.4 3.6 1 2.7 3.4 -1.3 3.4 -2.8 0 -3.5 -0.4 -3.5 -2z"/>
  <path d="M326.9 214.1 c-10.4 -4.1 -17.4 -10.8 -21.6 -21 -2.9 -7.1 -3 -10.1 -0.3 -10.1 1.6 0 2 0.7 2 3.5 0 1.9 0.4 3.5 0.8 3.5 1 0 4.2 6.5 4.2 8.5 0 0.8 0.6 1.5 1.3 1.5 1.8 0 5.7 4.2 5.7 6.2 0 1 1.2 1.8 3.3 2.1 6.7 1.1 13.7 4.1 13.7 6 0 2.2 -3.1 2.2 -9.1 -0.2z"/>
  <path d="M344 214.2 c0 -2 3.2 -3.2 8.6 -3.2 5.3 0 1.7 3.3 -4.9 4.5 -3.3 0.6 -3.7 0.5 -3.7 -1.3z"/>
  <path d="M356 209.5 c0 -1.6 0.6 -2.5 1.5 -2.5 0.8 0 1.5 -0.4 1.5 -1 0 -0.5 1.4 -1 3 -1 2.7 0 3 -0.3 3 -3 0 -2.3 0.4 -3 2 -3 1.5 0 2 -0.7 2 -2.9 0 -1.6 0.7 -3.7 1.6 -4.6 3 -3 2 -27.5 -1.1 -27.5 -1.4 0 -2.5 -2.2 -2.5 -5 0 -1.2 -0.8 -2 -2.2 -2.2 -1.5 -0.2 -2.4 -1.1 -2.6 -2.5 -0.3 -1.7 -1 -2.3 -2.8 -2.3 -1.9 0 -2.4 -0.5 -2.4 -2.5 0 -3.2 0.9 -3.1 5.3 0.3 15.6 12.4 19 34 7.9 50.2 -3.4 5 -11.1 12 -13.3 12 -0.5 0 -0.9 -1.1 -0.9 -2.5z"/>
  <path d="M303.5 171.3 c1.2 -6.6 4.5 -10.2 4.5 -4.9 0 5.4 -1.2 8.6 -3.2 8.6 -1.8 0 -1.9 -0.4 -1.3 -3.7z"/>
  <path d="M310 157.1 c3.4 -4.9 10 -10 15.9 -12.3 7.1 -2.7 20.7 -3 26.4 -0.5 5.4 2.4 4.9 4.2 -1 3.1 -8.6 -1.4 -21.9 -0.9 -23.8 1 -0.9 0.9 -2.7 1.9 -4.1 2.2 -1.3 0.3 -2.4 1 -2.4 1.5 0 0.5 -1.6 0.9 -3.5 0.9 -3.3 0 -3.5 0.2 -3.5 3.5 0 3.2 -0.2 3.5 -3.1 3.5 l-3 0 2.1 -2.9z"/>
 </g>
 <g fill="#29a4c0">
  <path d="M478.2 737.1 c-2.7 -4.8 -2.7 -5.1 0.2 -5.1 2.6 0 3.6 1.6 3.6 6.1 0 4 -1.2 3.6 -3.8 -1z"/>
  <path d="M328.1 730.4 c-4.7 -1.7 -11.5 -5.6 -12.6 -7.4 -0.4 -0.6 0.7 -1 2.9 -1 2.5 0 3.6 0.4 3.6 1.5 0 0.9 0.9 1.5 2.5 1.5 1.4 0 2.5 0.4 2.5 0.9 0 0.5 2.3 1.2 5 1.6 4 0.6 5 1.1 5 2.6 0 2.3 -2.7 2.4 -8.9 0.3z"/>
  <path d="M343 730.4 c0 -1.4 1.5 -2.4 5.3 -3.7 10.6 -3.7 11.7 -4.2 11.7 -5.4 0 -0.7 0.9 -1.3 2 -1.3 1.3 0 2 -0.7 2 -2 0 -1.1 0.7 -2.3 1.5 -2.6 0.8 -0.4 1.5 -1.2 1.5 -2 0 -0.8 1 -1.4 2.5 -1.4 3.2 0 3.1 0.8 -0.3 5.6 -5 6.8 -13.9 12.4 -22.4 13.9 -3.3 0.6 -3.8 0.5 -3.8 -1.1z"/>
  <path d="M473.5 727.8 c-0.7 -1.8 -1.6 -5 -2 -7 -0.6 -3.3 -0.5 -3.8 1.2 -3.8 1.4 0 2.2 1.2 3.1 4.5 2.3 8.6 0.6 13.2 -2.3 6.3z"/>
  <path d="M309.2 716.1 c-2.9 -4 -6.2 -12.3 -6.2 -15.8 0 -0.7 0.9 -1.3 2 -1.3 1.1 0 2 0.7 2 1.6 0 1.9 4.1 11.7 5.3 12.5 0.5 0.3 0.7 2.1 0.5 4 l-0.3 3.4 -3.3 -4.4z"/>
  <path d="M371.5 706.8 c0.4 -2.4 0.9 -21.1 1.2 -41.5 0.3 -31.4 0.6 -37.3 1.8 -37.3 2.4 0 2.6 5 2.3 41 -0.3 29.9 -0.5 35 -2 38.3 -2.4 5.2 -4.2 4.9 -3.3 -0.5z"/>
  <path d="M471.5 707.3 c2.1 -11.8 11.3 -23.2 21.8 -27.2 2.5 -1 2.7 -0.8 2.7 1.3 0 1.7 -0.9 2.7 -3.2 3.7 -1.8 0.7 -3.7 1.9 -4.1 2.6 -0.4 0.7 -2.1 1.3 -3.7 1.3 -2.7 0 -3 0.3 -3 3 0 1.7 -0.4 3 -1 3 -0.5 0 -1 0.7 -1 1.5 0 0.8 -0.7 1.5 -1.5 1.5 -0.8 0 -1.5 0.9 -1.5 2 0 1.1 -0.5 4 -1.2 6.5 -0.9 3.3 -1.7 4.5 -3.1 4.5 -1.7 0 -1.8 -0.5 -1.2 -3.7z"/>
  <path d="M539.2 703.5 c-0.7 -1.4 -1.2 -3.5 -1.2 -4.5 0 -1.1 -0.7 -2 -1.5 -2 -0.8 0 -1.5 -0.8 -1.5 -1.8 0 -0.9 -1 -2.2 -2.2 -2.7 -1.3 -0.6 -2.7 -2 -3.3 -3.2 -0.5 -1.3 -1.8 -2.3 -2.7 -2.3 -1.3 0 -1.8 -0.8 -1.8 -2.5 0 -3.2 0.7 -3.1 5.7 0.5 3.9 2.9 9.1 9.7 12.7 16.7 2.1 4.1 2 4.3 -0.7 4.3 -1.6 0 -2.8 -0.9 -3.5 -2.5z"/>
  <path d="M513.3 681.7 c-3.2 -0.8 -4.3 -1.6 -4.3 -3 0 -1.7 0.5 -1.8 4.3 -1.2 5.4 0.9 10.7 3.1 10.7 4.4 0 1.3 -4.9 1.2 -10.7 -0.2z"/>
  <path d="M499 679.6 c0 -0.7 1 -1.6 2.3 -2 4.1 -1.1 5.7 -0.7 5.7 1.4 0 1.7 -0.7 2 -4 2 -2.7 0 -4 -0.4 -4 -1.4z"/>
  <path d="M607.7 669.1 c-2.2 -3.8 -2.2 -4.1 0.8 -4.1 2.2 0 2.5 0.4 2.5 3.5 0 4.3 -1 4.4 -3.3 0.6z"/>
  <path d="M662 620.4 c0 -3.9 0.9 -3.8 4 0.6 l2.1 3 -3 0 c-2.9 0 -3.1 -0.3 -3.1 -3.6z"/>
  <path d="M567.9 604 c-3 -4.1 -6.9 -10.5 -6.9 -11.4 0 -0.3 1.1 -0.6 2.5 -0.6 2 0 2.5 0.5 2.5 2.5 0 1.6 0.6 2.5 1.5 2.5 0.8 0 1.5 0.6 1.5 1.4 0 0.8 0.5 1.6 1.1 1.8 0.6 0.2 0.9 1.9 0.7 3.8 l-0.3 3.5 -2.6 -3.5z"/>
  <path d="M553.9 581.7 c-5.3 -8.6 -8.9 -16.8 -8.9 -20.2 0 -0.8 0.9 -1.5 1.9 -1.5 1.5 0 2.1 1 2.6 4.2 0.4 2.3 1.4 4.8 2.1 5.6 0.8 0.7 1.4 2.4 1.4 3.8 0 1.5 0.6 2.4 1.5 2.4 0.8 0 1.5 0.7 1.5 1.5 0 0.8 0.5 1.5 1 1.5 0.6 0 1 1.1 1 2.5 0 1.6 0.6 2.5 1.5 2.5 1 0 1.5 1.1 1.5 3.5 0 1.9 -0.3 3.5 -0.7 3.5 -0.5 0 -3.3 -4.2 -6.4 -9.3z"/>
  <path d="M629 568.5 c0 -1.6 -0.6 -2.5 -1.5 -2.5 -0.8 0 -1.5 -0.7 -1.5 -1.5 0 -0.8 -0.4 -1.5 -1 -1.5 -0.5 0 -1 -1.1 -1 -2.5 0 -1.6 -0.6 -2.5 -1.5 -2.5 -1 0 -1.5 -1.1 -1.5 -3.5 0 -1.9 0.3 -3.5 0.8 -3.5 0.7 0 12.2 18.2 12.2 19.4 0 0.3 -1.1 0.6 -2.5 0.6 -2 0 -2.5 -0.5 -2.5 -2.5z"/>
  <path d="M545.4 549.3 c1.9 -10.5 10.7 -22.1 20.1 -26.4 4 -1.8 4 -1.8 4.3 0.3 0.4 2.3 -1 3.6 -5 4.5 -1.6 0.3 -2.8 1.2 -2.8 1.9 0 0.9 -1.1 1.4 -3 1.4 -2.7 0 -3 0.3 -3 3 0 1.7 -0.4 3 -1 3 -0.5 0 -1 0.7 -1 1.5 0 0.8 -0.7 1.5 -1.5 1.5 -0.8 0 -1.5 0.9 -1.5 2 0 1.1 -0.5 4 -1.2 6.5 -0.9 3.3 -1.7 4.5 -3.1 4.5 -1.7 0 -1.8 -0.5 -1.3 -3.7z"/>
  <path d="M616 547.5 c0 -1.6 -0.6 -2.5 -1.5 -2.5 -0.8 0 -1.5 -0.7 -1.5 -1.5 0 -0.8 -0.4 -1.5 -1 -1.5 -0.5 0 -1 -1.3 -1 -3 0 -2.2 -0.5 -3 -1.8 -3 -2.5 0 -6.2 -4.1 -6.2 -6.8 0 -1.8 -0.6 -2.2 -3.5 -2.2 -1.9 0 -3.5 -0.4 -3.5 -0.8 0 -0.5 -2.9 -1.5 -6.5 -2.2 -5.3 -1.1 -6.5 -1.7 -6.5 -3.3 0 -1.7 0.5 -1.8 4.3 -1.2 12 2 20 7.8 27.9 19.9 3.2 5 5.8 9.4 5.8 9.8 0 0.4 -1.1 0.8 -2.5 0.8 -2 0 -2.5 -0.5 -2.5 -2.5z"/>
  <path d="M677.2 532 c-2.3 -0.5 -4.6 -1.1 -5 -1.3 -4.7 -2.2 -60.2 -34.4 -60.2 -34.8 0 -1.2 58.1 -34.1 62.7 -35.5 18.8 -5.7 39.3 5.4 45.3 24.5 3.4 10.9 2 21.6 -4.2 31.3 -7.5 11.9 -24.3 18.8 -38.6 15.8z"/>
  <path d="M573 521.6 c0 -0.7 1 -1.6 2.3 -2 4.1 -1.1 5.7 -0.7 5.7 1.4 0 1.7 -0.7 2 -4 2 -2.7 0 -4 -0.4 -4 -1.4z"/>
  <path d="M372.6 290.8 c-0.7 -4.5 -5.2 -13.8 -7.3 -15.1 -0.7 -0.4 -1.3 -1.5 -1.3 -2.2 0 -0.8 -0.7 -1.5 -1.5 -1.5 -1 0 -1.5 -1 -1.5 -3.1 l0 -3 2.9 2 c6.1 4.3 11.6 14.1 12.7 22.5 0.6 4.1 0.5 4.6 -1.3 4.6 -1.6 0 -2.2 -0.9 -2.7 -4.2z"/>
  <path d="M303.5 288.3 c1.2 -6.6 4.5 -10.2 4.5 -4.9 0 5.4 -1.2 8.6 -3.2 8.6 -1.8 0 -1.9 -0.4 -1.3 -3.7z"/>
  <path d="M314 269.6 c0 -1 6.8 -5.6 10.3 -7.1 3.7 -1.5 3.7 -1.5 3.7 0.9 0 1.9 -0.8 2.8 -3.5 3.7 -1.9 0.7 -3.5 1.7 -3.5 2.1 0 0.4 -1.6 0.8 -3.5 0.8 -1.9 0 -3.5 -0.2 -3.5 -0.4z"/>
  <path d="M347.5 264 c-1.1 -0.5 -3.2 -0.9 -4.7 -0.9 -2.2 -0.1 -2.8 -0.6 -2.8 -2.2 0 -2 0.4 -2.1 4.8 -1.4 5.7 0.8 11.2 3 11.2 4.4 0 1.3 -5.6 1.3 -8.5 0.1z"/>
  <path d="M332 261.6 c0 -1.3 2.8 -2.6 5.8 -2.6 0.6 0 1.2 0.9 1.2 2 0 1.6 -0.7 2 -3.5 2 -2.3 0 -3.5 -0.5 -3.5 -1.4z"/>
 </g>
 <g fill="#0bb8dd">
  <path d="M496.1 753 c-8.8 -2.1 -10.9 -3.9 -16.5 -13.9 -8.6 -15.2 -10.3 -24 -7 -35.2 3.2 -11.1 9.8 -18.5 21.1 -23.6 4.8 -2.2 7.2 -2.7 13.8 -2.7 15.8 0.1 26 6.9 35.3 23.6 5.6 10.3 6 12.3 4.1 22.3 -2.7 14.4 -12 24.8 -26 28.9 -5.5 1.7 -18.9 2 -24.8 0.6z"/>
  <path d="M342 730 c0 -1.6 0.7 -2 3.5 -2 4 0 4.9 2.4 1.3 3.4 -3.8 1 -4.8 0.7 -4.8 -1.4z"/>
  <path d="M326.3 729.5 c-4 -1.7 -4.3 -3.5 -0.5 -3.5 4.7 0 7.2 1.1 7.2 3.1 0 2.3 -2.2 2.4 -6.7 0.4z"/>
  <path d="M317 724 l-3.5 -2.9 3.8 -0.1 c3.5 0 3.7 0.2 3.7 3 0 1.7 -0.1 3 -0.3 3 -0.1 0 -1.8 -1.3 -3.7 -3z"/>
  <path d="M357 724.5 c0 -1.7 0.5 -2.5 1.8 -2.5 0.9 0 2.2 -1 2.7 -2.2 0.7 -1.6 2 -2.4 4.3 -2.6 3.3 -0.3 3.3 -0.3 1.7 2.1 -1.5 2.4 -8.3 7.7 -9.8 7.7 -0.4 0 -0.7 -1.1 -0.7 -2.5z"/>
  <path d="M372 703.5 c0 -2.8 0.4 -3.5 2 -3.5 2.1 0 2.4 1 1.4 4.8 -1 3.6 -3.4 2.7 -3.4 -1.3z"/>
 </g>
 <g fill="#4bc5e0">
  <path d="M492.4 752.2 c-6 -2.1 -7.1 -3 -10.9 -9.7 l-2.9 -5 4.1 3.7 c5.3 4.6 10.8 7.5 17.3 8.9 3.1 0.7 5 1.6 5 2.5 0 2 -6.2 1.8 -12.6 -0.4z"/>
  <path d="M511 752.7 c0 -0.8 2.5 -2.1 6 -3 14.9 -4.2 24.4 -14.6 27 -29.8 0.7 -4.3 0.8 -8.1 0.1 -11.4 -0.5 -2.7 -0.8 -5.2 -0.6 -5.3 0.2 -0.2 1.3 1.5 2.5 3.9 1.9 3.6 2.2 5.5 1.8 11.8 -0.5 7.2 -3.9 18.1 -5.8 18.1 -0.4 0 -1 0.9 -1.3 2 -0.4 1.5 -1.4 2 -3.6 2 -2.8 0 -3.1 0.3 -3.1 3 0 1.7 -0.5 3 -1 3 -0.6 0 -2 0.8 -3.1 1.9 -4.2 3.9 -18.9 6.8 -18.9 3.8z"/>
  <path d="M327.9 729.8 c-11.4 -4.1 -20.1 -13 -23.4 -24.2 -1 -3.2 -1.5 -9.4 -1.5 -17.1 0 -11.9 0.1 -12.3 3.1 -16.8 1.7 -2.6 4.7 -6 6.7 -7.5 5.4 -4.3 59.6 -35.2 61.6 -35.2 1.6 0 1.7 2.7 1.4 38.3 l-0.3 38.2 -2.8 5.6 c-8 16.4 -27.8 24.6 -44.8 18.7z"/>
  <path d="M559.7 591.1 c-2.2 -3.8 -2.2 -4.1 0.8 -4.1 2.2 0 2.5 0.4 2.5 3.5 0 4.3 -1 4.4 -3.3 0.6z"/>
  <path d="M619 551.5 c0 -4.3 1 -4.4 3.3 -0.6 2.2 3.8 2.2 4.1 -0.8 4.1 -2.2 0 -2.5 -0.4 -2.5 -3.5z"/>
  <path d="M553 533 c3.1 -4.4 4 -4.5 4 -0.6 0 3.3 -0.2 3.6 -3.1 3.6 l-3 0 2.1 -3z"/>
  <path d="M599 526.5 c0 -3.1 1.1 -3.2 4.7 0 l2.8 2.4 -3.7 0.1 c-3.4 0 -3.8 -0.3 -3.8 -2.5z"/>
  <path d="M569 522.6 c0 -1.3 2.8 -2.6 5.8 -2.6 0.6 0 1.2 0.9 1.2 2 0 1.6 -0.7 2 -3.5 2 -2.3 0 -3.5 -0.5 -3.5 -1.4z"/>
  <path d="M371 283.5 c0 -3.9 1.4 -4.6 3 -1.6 1.6 3.1 1.2 5.1 -1 5.1 -1.6 0 -2 -0.7 -2 -3.5z"/>
  <path d="M362.7 273.3 c-0.4 -0.3 -0.7 -1.9 -0.7 -3.5 0 -2.8 0.1 -2.8 2.1 -1.4 1.1 0.8 2.7 2.4 3.5 3.5 1.4 2 1.4 2.1 -1.4 2.1 -1.6 0 -3.2 -0.3 -3.5 -0.7z"/>
 </g>
 <g fill="#7dcbdf">
  <path d="M623 870 c0 -1.6 0.7 -2 3.5 -2 4 0 4.9 2.4 1.3 3.4 -3.8 1 -4.8 0.7 -4.8 -1.4z"/>
  <path d="M632 869 c0 -1.6 0.7 -2 3.5 -2 4 0 4.9 2.4 1.3 3.4 -3.8 1 -4.8 0.7 -4.8 -1.4z"/>
  <path d="M589 867.6 c-14.2 -4.3 -19.2 -7.6 -11.5 -7.6 1.9 0 3.5 0.5 3.5 1 0 0.6 0.6 1 1.3 1 0.6 0 4.9 1 9.4 2.2 6.4 1.8 8.3 2.7 8.3 4.1 0 2.2 -1.8 2.1 -11 -0.7z"/>
  <path d="M642 867 c0 -1.6 0.7 -2 3.5 -2 1.9 0 3.5 -0.4 3.5 -1 0 -0.5 1.6 -1 3.6 -1 5 0 3.9 2.1 -2.2 4.2 -6.7 2.3 -8.4 2.2 -8.4 -0.2z"/>
  <path d="M657 862.5 c0 -2.2 0.4 -2.5 3.6 -2.5 4.4 0 4.2 1.8 -0.4 3.7 -3.1 1.3 -3.2 1.2 -3.2 -1.2z"/>
  <path d="M562.8 856.2 c-3.7 -2.2 -3.5 -3.2 0.7 -3.2 3.1 0 3.5 0.3 3.5 2.5 0 2.9 -0.6 3 -4.2 0.7z"/>
  <path d="M676 852.5 c0 -1.6 0.6 -2.5 1.5 -2.5 0.8 0 1.5 -0.4 1.5 -1 0 -0.5 0.7 -1 1.5 -1 0.8 0 1.5 -0.4 1.5 -1 0 -0.5 1.1 -1 2.5 -1 1.8 0 2.5 -0.5 2.5 -2 0 -1.7 0.7 -2 3.8 -2 l3.7 0.1 -3.5 3 c-4.2 3.7 -13.2 9.9 -14.2 9.9 -0.5 0 -0.8 -1.1 -0.8 -2.5z"/>
  <path d="M552.3 848.9 c-2.9 -2.2 -5.3 -4.2 -5.3 -4.4 0 -0.3 1.6 -0.5 3.5 -0.5 2.4 0 3.5 0.5 3.5 1.5 0 0.8 0.9 1.5 2 1.5 1.6 0 2 0.7 2 3 0 1.7 -0.1 3 -0.2 3 -0.2 0 -2.7 -1.8 -5.5 -4.1z"/>
  <path d="M534.4 831.3 c-2 -2.7 -4.2 -5.4 -4.7 -6 -0.7 -1 -0.2 -1.3 2.2 -1.3 2.6 0 3.1 0.4 3.1 2.5 0 1.8 0.5 2.5 2 2.5 1.6 0 2 0.7 2 3.5 0 1.9 -0.2 3.5 -0.4 3.5 -0.2 0 -2.1 -2.1 -4.2 -4.7z"/>
  <path d="M700 832.6 c0 -2.9 0.4 -3.9 2 -4.3 1.1 -0.3 2 -1.4 2 -2.4 0 -1.5 0.7 -1.9 3.1 -1.9 l3 0 -3.2 4.5 c-1.8 2.5 -4.1 5.2 -5.1 6.2 -1.7 1.5 -1.8 1.4 -1.8 -2.1z"/>
  <path d="M710 818.5 c0 -3.1 0.3 -3.5 2.5 -3.5 3 0 3 0.3 0.8 4.1 -2.3 3.8 -3.3 3.7 -3.3 -0.6z"/>
  <path d="M524.3 817.1 c-0.7 -1.1 -10.1 -17.4 -20.9 -36.3 -10.8 -18.9 -20.6 -35.9 -21.8 -37.8 l-2.1 -3.5 5.5 3.9 c7 5 6.7 4.8 5.3 5.3 -1.8 0.7 -1.6 4.3 0.2 4.3 0.9 0 1.5 -0.9 1.5 -2.4 l0 -2.4 5.1 1.5 c7.3 2.2 19.9 1.3 26.2 -1.7 10 -4.8 18 -14.5 20.7 -25.2 1.4 -5.3 4 -6.6 4 -2 0 4 -2.8 12.8 -4.5 14.6 -0.8 0.8 -1.5 1.9 -1.5 2.5 0 0.6 -0.9 1.1 -2 1.1 -1.5 0 -2 0.7 -2 2.5 0 2 -0.5 2.5 -2.5 2.5 -1.8 0 -2.5 0.5 -2.5 2 0 1.1 -0.7 2 -1.5 2 -0.8 0 -1.5 0.5 -1.5 1 0 0.6 -0.9 1 -2 1 -1.1 0 -2 0.5 -2 1 0 0.6 -1.3 1 -2.9 1 -1.6 0 -3.1 0.5 -3.3 1.1 -0.5 1.4 -16.1 1.8 -22.5 0.6 l-4.3 -0.7 0 3.5 c0 2.8 0.4 3.5 2 3.5 1.6 0 2 0.7 2 3.5 0 2.8 0.4 3.5 2 3.5 1.6 0 2 0.7 2 3.5 0 2.8 0.4 3.5 2 3.5 1.6 0 2 0.7 2 3.5 0 2.8 0.4 3.5 2 3.5 1.5 0 2 0.7 2 2.5 0 1.6 0.6 2.5 1.5 2.5 1 0 1.5 1.1 1.5 3.5 0 2.8 0.4 3.5 2 3.5 1.6 0 2 0.7 2 3.5 0 2.8 0.4 3.5 1.9 3.5 2 0 3.1 1.8 3.1 5.1 0 1 0.7 1.9 1.5 1.9 0.9 0 1.5 0.9 1.5 2.5 0 1.6 0.6 2.5 1.5 2.5 1 0 1.5 1.1 1.5 3.5 0 3.9 -0.9 4.5 -2.7 1.6z"/>
  <path d="M716 806.5 c0 -1.9 0.5 -3.5 1 -3.5 0.6 0 1 -1.1 1 -2.5 0 -2 0.5 -2.5 2.5 -2.5 l2.5 0 -2.1 5.2 c-2.5 6.3 -2.8 6.8 -4 6.8 -0.5 0 -0.9 -1.6 -0.9 -3.5z"/>
  <path d="M611.3 800.3 c-1.5 -0.3 -2.3 -1.2 -2.3 -2.4 0 -2.2 0.6 -2.3 6.6 -0.8 8.2 2.1 4.4 4.9 -4.3 3.2z"/>
  <path d="M636 795.3 c0 -0.5 1.6 -1.8 3.5 -3.1 l3.5 -2.2 0 3 c0 2.8 -0.3 3 -3.5 3 -1.9 0 -3.5 -0.3 -3.5 -0.7z"/>
  <path d="M721 793.8 c0 -1.2 0.5 -4.8 1.2 -8 0.9 -4.5 1.6 -5.8 3 -5.8 2.2 0 2.2 0.3 0.2 9.1 -1 4.5 -2 6.9 -3 6.9 -0.8 0 -1.4 -1 -1.4 -2.2z"/>
  <path d="M589.1 787.6 c-0.7 -0.8 -1.1 -2.9 -0.9 -4.6 l0.3 -3.1 4.5 4.5 4.4 4.6 -3.6 0 c-1.9 0 -4.1 -0.6 -4.7 -1.4z"/>
  <path d="M647.2 784.5 c2.9 -4.4 3.8 -4.4 3.8 0 0 3.2 -0.2 3.5 -3 3.5 l-3 0 2.2 -3.5z"/>
  <path d="M651.3 776.5 c0.6 -1.9 1.6 -3.5 2.4 -3.5 0.8 0 1.3 1.3 1.3 3.5 0 3 -0.3 3.5 -2.4 3.5 -2.3 0 -2.4 -0.2 -1.3 -3.5z"/>
  <path d="M581 774.5 c0 -2.8 -0.4 -3.5 -2 -3.5 -1.5 0 -2 -0.7 -2 -2.5 0 -1.6 -0.6 -2.5 -1.5 -2.5 -1 0 -1.5 -1.1 -1.5 -3.5 0 -2.8 -0.4 -3.5 -2 -3.5 -1.6 0 -2 -0.7 -2 -3.5 0 -2.8 -0.4 -3.5 -2 -3.5 -1.6 0 -2 -0.7 -2 -3.5 0 -2.8 -0.4 -3.5 -2 -3.5 -1.6 0 -2 -0.7 -2 -3.5 0 -1.9 0.4 -3.5 0.8 -3.5 0.4 0 3.7 5.1 7.2 11.3 3.5 6.1 8.7 15.1 11.6 20 l5.2 8.7 -2.9 0 c-2.7 0 -2.9 -0.3 -2.9 -3.5z"/>
  <path d="M653 769.8 c0 -3 1.3 -5.8 2.6 -5.8 0.9 0 1.4 1.2 1.4 3.5 0 2.8 -0.4 3.5 -2 3.5 -1.1 0 -2 -0.6 -2 -1.2z"/>
  <path d="M653.6 759.3 c-1.9 -9.8 -1.9 -10.3 0.2 -10.3 1.5 0 2.1 0.9 2.6 4.6 0.3 2.6 0.6 5.5 0.6 6.5 0 2.9 -2.8 2.2 -3.4 -0.8z"/>
  <path d="M724 748.5 c0 -4 2.4 -4.9 3.4 -1.2 1 3.7 0.7 4.7 -1.4 4.7 -1.6 0 -2 -0.7 -2 -3.5z"/>
  <path d="M644.7 734.1 c-2.2 -3.8 -2.2 -4.1 0.8 -4.1 2.2 0 2.5 0.4 2.5 3.5 0 4.3 -1 4.4 -3.3 0.6z"/>
  <path d="M557 732.5 c0 -2.8 -0.4 -3.5 -2 -3.5 -1.6 0 -2 -0.7 -2 -3.5 0 -2.8 -0.4 -3.5 -2 -3.5 -1.6 0 -2 -0.7 -2 -3.5 0 -2.8 -0.4 -3.5 -2 -3.5 -1.6 0 -2 -0.7 -2 -3.2 0 -1.8 -0.3 -4.4 -0.6 -5.8 -0.5 -2.1 15.7 24.9 17.3 28.8 0.3 0.8 -0.4 1.2 -2.1 1.2 -2.3 0 -2.6 -0.4 -2.6 -3.5z"/>
  <path d="M719.2 729.1 c-0.7 -2.1 -1.2 -4.6 -1.2 -5.5 0 -0.9 -0.4 -1.6 -1 -1.6 -0.5 0 -1 -1.1 -1 -2.5 0 -1.4 -0.4 -2.5 -1 -2.5 -0.5 0 -1 -1.6 -1 -3.6 0 -5.9 2.2 -3.5 6.2 6.7 4.3 10.7 4.6 12.9 2 12.9 -1.3 0 -2.2 -1.2 -3 -3.9z"/>
  <path d="M625.7 700.5 c-8.6 -15.1 -15.7 -27.7 -15.7 -28 0 -0.3 1.1 -0.5 2.5 -0.5 2.2 0 2.5 0.4 2.5 3.5 0 2.8 0.4 3.5 2 3.5 1.6 0 2 0.7 2 3.5 0 2.8 0.4 3.5 2 3.5 1.6 0 2 0.7 2 3.5 0 2.8 0.4 3.5 2 3.5 1.6 0 2 0.7 2 3.5 0 2.8 0.4 3.5 2 3.5 1.6 0 2 0.7 2 3.5 0 2.8 0.4 3.5 2 3.5 1.6 0 2 0.7 2 3.5 0 2.8 0.4 3.5 2 3.5 1.6 0 2 0.7 2 3.5 0 2.8 0.4 3.5 2 3.5 1.6 0 2 0.7 2 3.5 0 1.9 -0.4 3.5 -0.8 3.5 -0.4 0 -7.8 -12.4 -16.5 -27.5z"/>
  <path d="M709.6 706.4 c-0.9 -2.5 -0.7 -7.4 0.4 -7.4 1 0 2.4 2.2 4 6.4 0.9 2.3 0.7 2.6 -1.4 2.6 -1.3 0 -2.7 -0.7 -3 -1.6z"/>
  <path d="M701.6 690.4 c-0.9 -2.3 -0.7 -7.4 0.2 -7.4 0.8 0 5.2 7.1 5.2 8.4 0 1.4 -4.8 0.5 -5.4 -1z"/>
  <path d="M303 681.8 c0 -4.2 0.5 -7.1 1.3 -8 0.7 -0.7 1.6 -2.1 2 -3 0.4 -1.2 1.7 -1.8 3.7 -1.8 2.7 0 3 -0.3 3 -3 0 -2 0.6 -3.3 1.8 -3.7 0.9 -0.4 2.3 -1.3 3 -2 0.7 -0.7 2 -1.3 2.8 -1.3 0.8 0 1.4 -0.4 1.4 -0.9 0 -0.5 1.6 -1.5 3.5 -2.2 1.9 -0.7 3.5 -1.6 3.5 -2 0 -0.4 1.6 -1.3 3.5 -2 1.9 -0.7 3.5 -1.6 3.5 -1.9 0 -0.3 2.6 -1.9 5.7 -3.5 3.2 -1.7 6.3 -3.6 7.1 -4.2 0.7 -0.7 2.4 -1.6 3.8 -1.9 1.3 -0.3 2.4 -1 2.4 -1.4 0 -0.4 1.5 -1.3 3.3 -2.1 1.7 -0.7 3.4 -1.6 3.7 -1.9 1.3 -1.6 9.9 -6 11.8 -6 5.6 0 0.3 3.9 -26 19 -15.6 9 -29.9 17.5 -31.9 19.1 -4.7 3.7 -8.8 9.7 -11 16.2 l-1.8 5.2 -0.1 -6.7z"/>
  <path d="M695 675.5 c0 -2.8 -0.4 -3.5 -2 -3.5 -1.6 0 -2 -0.7 -2 -3.5 0 -2.8 -0.4 -3.5 -2 -3.5 -1.5 0 -2 -0.7 -2 -2.5 0 -1.6 -0.6 -2.5 -1.5 -2.5 -0.9 0 -1.5 -0.9 -1.5 -2.5 0 -1.6 -0.6 -2.5 -1.5 -2.5 -0.9 0 -1.5 -0.9 -1.5 -2.5 0 -1.6 -0.6 -2.5 -1.5 -2.5 -1 0 -1.5 -1.1 -1.5 -3.5 0 -3.8 0.9 -4.5 2.6 -1.7 3.8 6 19.4 33.1 19.4 33.6 0 0.3 -1.1 0.6 -2.5 0.6 -2.2 0 -2.5 -0.4 -2.5 -3.5z"/>
  <path d="M600.7 657.1 c-2.6 -4.4 -4.7 -8.2 -4.7 -8.5 0 -0.3 1.1 -0.6 2.5 -0.6 2 0 2.5 0.5 2.5 2.5 0 1.6 0.6 2.5 1.5 2.5 0.8 0 1.5 0.5 1.5 1.1 0 0.6 0.7 1.7 1.5 2.5 1.5 1.6 2.1 8.4 0.7 8.4 -0.4 0 -2.9 -3.6 -5.5 -7.9z"/>
  <path d="M588.8 637.6 c-3.2 -5.1 -5.8 -9.6 -5.8 -10 0 -0.3 1.1 -0.6 2.5 -0.6 2 0 2.5 0.5 2.5 2.5 0 1.6 0.6 2.5 1.5 2.5 0.8 0 1.5 0.7 1.5 1.5 0 0.8 0.5 1.5 1 1.5 0.6 0 1 1.1 1 2.5 0 1.6 0.6 2.5 1.5 2.5 1 0 1.5 1.1 1.5 3.5 0 1.9 -0.3 3.5 -0.7 3.5 -0.5 0 -3.4 -4.2 -6.5 -9.4z"/>
  <path d="M668 630 c0 -2.3 -0.4 -3 -2 -3 -1.6 0 -2 -0.7 -2 -3.5 0 -3.1 -0.3 -3.5 -2.5 -3.5 -2 0 -2.5 -0.5 -2.5 -2.5 0 -1.6 -0.6 -2.5 -1.5 -2.5 -1 0 -1.5 -1.1 -1.5 -3.5 0 -1.9 0.3 -3.5 0.8 -3.4 0.8 0 16.2 23.1 16.2 24.2 0 0.4 -1.1 0.7 -2.5 0.7 -2.1 0 -2.5 -0.5 -2.5 -3z"/>
  <path d="M575.8 616.6 c-3.2 -5.1 -5.8 -9.6 -5.8 -10 0 -0.3 1.1 -0.6 2.5 -0.6 2 0 2.5 0.5 2.5 2.5 0 1.6 0.6 2.5 1.5 2.5 0.8 0 1.5 0.7 1.5 1.5 0 0.8 0.5 1.5 1 1.5 0.6 0 1 1.1 1 2.5 0 1.6 0.6 2.5 1.5 2.5 1 0 1.5 1.1 1.5 3.5 0 1.9 -0.3 3.5 -0.7 3.5 -0.5 0 -3.4 -4.2 -6.5 -9.4z"/>
  <path d="M651 603.5 c0 -4.3 1 -4.4 3.3 -0.6 2.2 3.8 2.2 4.1 -0.8 4.1 -2.2 0 -2.5 -0.4 -2.5 -3.5z"/>
  <path d="M559.2 590 c-10.4 -16.7 -12.8 -21.6 -13.8 -27.8 -0.6 -3.7 -0.4 -4.2 1.2 -4.2 1.5 0 2.2 1.2 3.2 5.3 0.6 2.9 1.2 6 1.2 7 0 0.9 0.7 1.7 1.5 1.7 0.8 0 1.7 1.1 2.1 2.5 0.3 1.4 1 2.5 1.5 2.5 0.5 0 0.9 1.1 0.9 2.5 0 1.6 0.6 2.5 1.5 2.5 0.8 0 1.5 0.7 1.5 1.5 0 0.8 0.5 1.5 1 1.5 0.6 0 1 1.1 1 2.5 0 1.6 0.6 2.5 1.5 2.5 0.8 0 1.5 0.7 1.5 1.5 0 0.8 0.4 1.5 1 1.5 0.5 0 1.2 1.1 1.6 2.5 0.3 1.4 1 2.5 1.5 2.5 0.5 0 0.9 1.6 0.9 3.5 0 1.9 -0.3 3.5 -0.7 3.5 -0.5 0 -5 -6.8 -10.1 -15z"/>
  <path d="M646 596.5 c0 -1.6 -0.6 -2.5 -1.5 -2.5 -1 0 -1.5 -1.1 -1.5 -3.5 0 -1.9 0.3 -3.5 0.8 -3.5 0.7 0 7.2 10.2 7.2 11.4 0 0.3 -1.1 0.6 -2.5 0.6 -2 0 -2.5 -0.5 -2.5 -2.5z"/>
  <path d="M638 582.5 c0 -4.3 1 -4.4 3.3 -0.6 2.2 3.8 2.2 4.1 -0.8 4.1 -2.2 0 -2.5 -0.4 -2.5 -3.5z"/>
  <path d="M633 575.5 c0 -1.6 -0.6 -2.5 -1.5 -2.5 -0.9 0 -1.5 -0.9 -1.5 -2.5 0 -1.6 -0.6 -2.5 -1.5 -2.5 -0.8 0 -1.5 -0.7 -1.5 -1.5 0 -0.8 -0.4 -1.5 -1 -1.5 -0.5 0 -1 -1.1 -1 -2.5 0 -1.6 -0.6 -2.5 -1.5 -2.5 -0.8 0 -1.5 -0.7 -1.5 -1.5 0 -0.8 -0.4 -1.5 -1 -1.5 -0.5 0 -1 -1.1 -1 -2.5 0 -1.6 -0.6 -2.5 -1.5 -2.5 -0.9 0 -1.5 -0.9 -1.5 -2.5 0 -1.6 -0.6 -2.5 -1.5 -2.5 -0.8 0 -1.5 -0.7 -1.5 -1.5 0 -0.8 -0.4 -1.5 -1 -1.5 -0.5 0 -1 -1.1 -1 -2.5 0 -1.6 -0.6 -2.5 -1.5 -2.5 -1.1 0 -1.5 -1.1 -1.5 -3.7 0 -3.7 0 -3.7 1.9 -1.8 1.8 2 25.8 40.4 26.8 43.1 0.4 1 -0.3 1.4 -2.1 1.4 -2.1 0 -2.6 -0.5 -2.6 -2.5z"/>
  <path d="M545 552.8 c0 -3 1.3 -5.8 2.6 -5.8 0.9 0 1.4 1.2 1.4 3.5 0 2.8 -0.4 3.5 -2 3.5 -1.1 0 -2 -0.6 -2 -1.2z"/>
  <path d="M548.1 541.3 c1.6 -4.4 7.6 -11.8 11.7 -14.6 4.7 -3.3 5.2 -3.3 5.2 -0.2 0 1.7 -0.5 2.5 -1.8 2.5 -0.9 0 -2.2 1 -2.7 2.3 -0.6 1.2 -2 2.6 -3.2 3.2 -1.3 0.5 -2.3 1.8 -2.3 2.7 0 1 -0.4 1.8 -0.9 1.8 -0.5 0 -1.2 1.1 -1.5 2.5 -0.5 1.8 -1.3 2.5 -3.1 2.5 -2.2 0 -2.4 -0.2 -1.4 -2.7z"/>
  <path d="M597 527 c0 -0.5 -0.9 -1 -1.9 -1 -1.1 0 -2.1 -0.5 -2.3 -1 -0.2 -0.6 -4.3 -1.3 -9.1 -1.7 -6.2 -0.4 -8.7 -1 -8.7 -1.9 0 -3.7 14.3 -2.4 23.8 2.2 6.1 3 6.6 4.4 1.7 4.4 -1.9 0 -3.5 -0.4 -3.5 -1z"/>
  <path d="M566 524 c0 -1.2 3.3 -3 5.4 -3 0.9 0 1.6 0.9 1.6 2 0 1.6 -0.7 2 -3.5 2 -1.9 0 -3.5 -0.4 -3.5 -1z"/>
  <path d="M344.6 347.1 c-15.9 -9.2 -30.7 -18.2 -32.8 -20 -2.1 -1.7 -4.9 -5.2 -6.4 -7.6 -2.5 -4.4 -2.6 -4.9 -2.2 -18.8 0.3 -13.7 0.4 -14.5 3.6 -20.9 3.9 -7.9 9.2 -13 18.1 -17.1 5.7 -2.7 7.6 -3.1 14.6 -3 11.4 0 18.2 2.8 26.1 10.7 4.3 4.3 6.8 7.9 8.5 12.1 2.3 5.9 2.4 6.8 2.7 40.5 0.3 35.2 0 41 -2.1 40.9 -0.7 0 -14.2 -7.6 -30.1 -16.8z"/>
  <path d="M343 214.2 c0 -1.4 1.3 -2.2 5.5 -3.2 3 -0.7 5.5 -1.7 5.5 -2.2 0 -0.4 1.4 -0.8 3 -0.8 2.3 0 3 -0.4 3 -2 0 -1.3 0.7 -2 2 -2 1.3 0 2 -0.7 2 -2 0 -1.1 0.7 -2 1.5 -2 0.8 0 1.5 -0.9 1.5 -2 0 -1.5 0.7 -2 2.5 -2 3.3 0 3.2 0.8 -0.9 6.2 -4 5.3 -11.6 10.4 -18.2 12.4 -6.2 1.8 -7.4 1.8 -7.4 -0.4z"/>
  <path d="M317.3 208.5 l-2.8 -2.4 3.8 -0.1 c3.3 0 3.7 0.3 3.7 2.5 0 3.1 -1.1 3.2 -4.7 0z"/>
  <path d="M310.1 201.4 c-2.7 -3.5 -2.6 -4.4 0.4 -4.4 2.2 0 2.5 0.4 2.5 3.5 0 1.9 -0.2 3.5 -0.4 3.5 -0.3 0 -1.4 -1.2 -2.5 -2.6z"/>
  <path d="M371 191.5 c0 -2.8 0.4 -3.5 2 -3.5 2.2 0 2.6 2 1 5.1 -1.6 3 -3 2.3 -3 -1.6z"/>
  <path d="M305 192.1 c-1.6 -3.1 -1.2 -5.1 1 -5.1 1.6 0 2 0.7 2 3.5 0 3.9 -1.4 4.6 -3 1.6z"/>
  <path d="M303.5 172.3 c1.5 -8.3 7.4 -17.9 13.6 -22.3 l2.9 -2.1 0 3 c0 2.6 -0.4 3.1 -2.5 3.1 -2 0 -2.5 0.5 -2.5 2.5 0 1.6 -0.6 2.5 -1.5 2.5 -0.8 0 -1.5 0.9 -1.5 2 0 1.1 -0.7 2 -1.5 2 -1 0 -1.5 1 -1.5 3 0 1.7 -0.4 3 -1 3 -0.5 0 -1 1.6 -1 3.5 0 2.9 -0.4 3.5 -2.1 3.5 -1.9 0 -2.1 -0.4 -1.4 -3.7z"/>
  <path d="M372 171.4 c0 -1.4 -0.7 -3.2 -1.5 -4 -0.8 -0.9 -1.5 -2.6 -1.5 -4 0 -1.5 -0.6 -2.4 -1.5 -2.4 -1.1 0 -1.5 -1.1 -1.5 -3.7 0 -3.4 0.1 -3.5 1.8 -1.9 2.4 2.1 7 11.2 7.8 15.4 0.6 2.8 0.4 3.2 -1.5 3.2 -1.6 0 -2.1 -0.6 -2.1 -2.6z"/>
  <path d="M358 152.2 c0 -0.4 -1.6 -1.4 -3.5 -2.1 -1.9 -0.7 -3.5 -1.7 -3.5 -2.2 0 -0.5 -1.3 -0.9 -3 -0.9 -2.3 0 -3 -0.4 -3 -2 0 -1.1 0.7 -2 1.5 -2 3 0 12.2 4.1 15.5 6.9 l3.5 3 -3.7 0.1 c-2.1 0 -3.8 -0.4 -3.8 -0.8z"/>
  <path d="M324 147 c0 -1.2 3.3 -3 5.4 -3 0.9 0 1.6 0.9 1.6 2 0 1.6 -0.7 2 -3.5 2 -1.9 0 -3.5 -0.4 -3.5 -1z"/>
 </g>
 <g fill="#9cd5e3">
  <path d="M605 870.9 c-23.8 -3.1 -48.8 -16 -65.3 -33.9 -9.2 -10 -14 -17.4 -38.6 -60.4 -16 -27.8 -20.4 -36.2 -18 -34.1 4.9 4 11.9 7.2 18.7 8.5 15.8 2.8 32.6 -6 40 -21 2.4 -4.8 2.7 -6.7 2.7 -15.2 0 -5.3 0.3 -9.4 0.6 -9 0.3 0.4 9.3 16 19.9 34.7 10.6 18.7 21 36.3 23.2 39 5.2 6.6 10.9 11.1 18.8 14.9 5.6 2.7 7.6 3.1 14.5 3.1 6.2 0 9.1 -0.5 13 -2.3 17.6 -8.1 24 -29.4 15.2 -51 -4.2 -10.6 -44.9 -80.9 -73.4 -127.1 -15.1 -24.4 -28.2 -46.2 -29 -48.5 -1 -2.5 -1.7 -7.5 -1.7 -12.6 -0.1 -7.7 0.2 -9.2 3.2 -15.2 4.1 -8.4 12 -15.8 20 -18.8 4.7 -1.8 7.3 -2.1 14.7 -1.8 10.3 0.5 17.2 3.2 23.8 9.6 2.1 2 15.3 22.4 29.4 45.2 14.2 22.8 27.3 43.8 29.3 46.5 4.6 6.2 27.6 45.1 36.9 62.2 13.4 24.8 21.9 46.6 24.2 62.1 1.6 11.6 0.7 33.4 -2 43.8 -1.1 4.5 -3.8 12.2 -5.9 17.1 -18.6 43.2 -66.9 70.3 -114.2 64.2z"/>
  <path d="M303.1 495.5 l-0.1 -191 2.4 5.8 c2.9 7 6.6 11.9 11.5 15.5 2.1 1.5 16.2 9.9 31.4 18.7 l27.7 15.9 0 135.6 -0.1 135.5 -29.6 17 c-32.4 18.7 -37.2 22.5 -41.2 32.8 l-2 5.2 0 -191z"/>
  <path d="M329.3 214.5 c-10.2 -3.1 -18.5 -10.4 -23.2 -20.4 -2.2 -4.8 -2.6 -6.9 -2.6 -15.1 0.1 -8.3 0.4 -10.2 2.8 -15.2 3.7 -7.5 10.4 -14.3 17.5 -17.6 5.1 -2.4 6.9 -2.7 16.2 -2.7 9.5 0 11 0.3 15.8 2.8 7.5 4 12.4 8.7 16.2 15.9 2.9 5.3 3.5 7.6 3.8 14.6 0.6 10.1 -0.9 15.6 -6 23.3 -8.5 12.6 -26.1 18.9 -40.5 14.4z"/>
 </g>
</svg>